<svg width="315" height="282" viewBox="0 0 315 282" fill="none" xmlns="http://www.w3.org/2000/svg">
<ellipse cx="158.5" cy="205.5" rx="92.5" ry="70.5" fill="url(#paint0_radial)"/>
<path d="M162.5 154C213.5 154 233 128.5 233 83.5C220.5 56.5 224.581 55 228 44.5C228 44.5 235 31 228 21.0178C221 11.0356 202 21.0178 202 21.0178C196 25.5 192.5 22.9997 187 21.0178C166 19 194 6.00001 162.5 9.00001C151.627 9.00001 140.26 15.8901 125.5 15C108.5 4 93.0795 5.40051 86.5 13C80.1858 20.293 83 28.5 90 42C82.5 59.5 79 75.0289 79 83.5C79 124.645 113.5 154 162.5 154Z" fill="url(#paint1_radial)"/>
<path d="M107.221 63.1784C106.706 62.8239 106.026 63.1118 105.967 63.7177C105.95 63.9019 105.994 64.0895 106.106 64.2447C106.75 65.1341 109.304 68.2647 114.569 70.1447C119.569 71.9299 124.138 71.4783 125.705 71.2397C126.055 71.1865 126.303 70.9023 126.338 70.5429C126.39 70.0046 125.956 69.5091 125.42 69.4845C123.369 69.3906 118.64 69.0306 115.24 67.6653C112.115 66.4104 108.877 64.3172 107.221 63.1784Z" fill="#140F26"/>
<path d="M225 58.5731C225 84.8066 209.33 106.073 190 106.073C170.67 106.073 155 84.8066 155 58.5731C155 32.3396 170.67 23.5731 190 23.5731C209.33 23.5731 225 32.3396 225 58.5731Z" fill="#F8E4BD"/>
<path d="M121.726 74.7906C114.73 72.883 108.164 80.0986 111.55 86.6839C112.61 88.5914 114.307 90.0844 116.427 90.7145C118.969 91.9918 121.941 91.9918 124.69 90.2916C130.419 86.0452 128.507 76.4908 121.726 74.7905V74.7906Z" fill="#140F26"/>
<path d="M204.699 60.5466C205.187 60.1559 205.886 60.394 205.988 60.994C206.019 61.1765 205.988 61.3668 205.888 61.5297C205.31 62.4632 202.988 65.7701 197.873 68.0253C193.015 70.1668 188.425 70.0463 186.845 69.9214C186.492 69.8936 186.224 69.6281 186.164 69.2722C186.073 68.739 186.47 68.2134 187.002 68.1503C189.042 67.9085 193.732 67.208 197.025 65.6008C200.051 64.1236 203.129 61.802 204.699 60.5466Z" fill="#140F26"/>
<path d="M200.366 73.1004C195.489 71.6159 190.19 75.008 191.043 80.1087C190.828 80.9546 190.621 81.8089 190.621 82.6548C190.621 86.9012 194.438 90.3017 198.462 90.5089C202.279 90.5089 205.665 87.7471 206.725 84.1393C207.991 79.47 204.812 74.585 200.366 73.1004H200.366Z" fill="#140F26"/>
<path d="M158.5 274C209.953 274 248 241.997 248 206.5C248 181.646 229.347 158.504 200.5 146.862L209 141.903C237.175 155.14 256 179.117 256 206.5C256 248.198 212.348 282 158.5 282C104.652 282 61 248.198 61 206.5C61 178.315 80.9441 153.738 110.5 140.768L116.5 146C88.9028 158.11 69 182.411 69 206.5C69 241.997 107.047 274 158.5 274Z" fill="#140F26"/>
<path d="M236.578 91.4065C235.518 79.9447 232.124 67.8348 226.618 56.5904C236.578 46.6131 240.18 26.0207 229.16 16.4663C218.984 7.55059 202.243 11.374 194.825 21.99C190.163 19.4439 185.071 17.5279 179.772 16.4663C179.988 16.4663 179.988 16.4663 180.195 16.2507C183.374 15.1891 187.191 14.9734 190.155 13.2816C191.637 12.4356 191.852 9.67387 190.155 8.8195C189.94 7.97353 189.517 7.33491 188.458 7.11928C167.9 2.44995 145.85 3.71878 126.352 11.5814C118.089 -1.79643 97.5304 -3.70391 85.451 6.48084C75.9129 14.5507 75.0685 36.6281 86.5108 43.4202C70.614 68.0534 68.9167 100.963 86.933 125.172C108.55 154.043 146.919 161.474 180.616 156.166C195.453 153.827 211.133 148.735 222.163 138.119C234.665 126.018 238.06 108.394 236.578 91.4086L236.578 91.4065ZM228.522 105.423C223.861 149.371 166.838 156.38 132.504 147.042C92.448 135.995 68.4948 94.5926 87.5709 55.528C89.4752 51.4973 91.81 47.6738 94.3518 44.0661C95.1963 43.0045 95.4116 41.7272 94.1365 40.8813C89.2598 37.0579 85.4429 30.2654 85.2361 23.6801C86.5111 19.4337 90.535 16.4646 95.1963 17.0948C100.711 17.9407 104.95 22.4027 106.009 27.9264C106.854 31.9571 113.428 29.834 111.731 25.5875C108.336 17.5177 101.977 10.3022 92.2323 11.5711C103.252 5.84014 114.91 10.0865 122.544 19.0022C123.819 20.7025 126.146 20.2795 127.628 19.0022C143.102 12.6327 160.481 10.5095 177.654 11.5711C174.897 12.6327 171.933 13.91 170.235 16.0332C169.813 16.4562 169.598 16.8791 169.391 17.3104C168.969 18.795 169.606 20.4952 171.295 21.1338C178.929 23.68 185.917 26.6575 192.491 30.2653C193.551 31.9655 195.885 32.6042 197.574 31.1112C204.148 24.5259 213.471 14.5486 223.009 22.4028C221.734 22.1871 220.674 22.1871 219.614 22.4028C212.411 23.4643 206.897 29.411 204.14 35.7806C202.443 39.604 207.957 43.2117 209.861 39.1811C211.765 35.1504 213.885 30.904 218.124 28.988C222.148 27.2878 224.698 28.5651 227.447 30.2653C228.929 38.3351 223.423 48.3124 218.331 53.6204C216.211 55.7436 217.693 59.1441 220.028 59.99C226.826 73.9982 230.005 90.1372 228.523 105.422L228.522 105.423Z" fill="#140F26"/>
<path d="M185.914 111.793C185.07 109.886 182.519 110.093 181.037 111.155C177.22 114.555 176.583 120.071 170.224 119.863C164.925 119.648 163.65 116.04 162.168 112.432C162.168 112.009 162.168 111.586 161.953 111.155C163.65 109.878 165.132 107.97 166.407 106.27C168.949 102.869 170.431 99.0544 172.129 95.2309C173.611 91.6232 167.467 88.8613 165.554 92.4691C164.495 94.808 163.013 96.9312 161.531 99.0544C160.686 100.116 160.049 101.393 159.196 102.455C158.981 102.878 158.558 103.093 158.351 103.516C156.869 102.455 154.75 101.609 153.268 100.547C150.933 98.8472 148.606 96.9397 146.065 95.6623C143.73 94.3851 140.981 96.9396 142.248 99.4858C144.152 102.886 147.124 105.432 150.088 107.556C151.786 108.833 153.69 110.525 155.809 111.586C155.594 112.009 155.594 112.432 155.594 112.864C153.69 117.749 151.355 122.634 145.419 123.48C138.215 124.757 136.303 119.656 133.761 114.348C133.123 113.071 130.797 112.863 130.159 114.348C126.558 122.841 136.518 130.272 144.152 130.272C145.427 130.272 146.694 130.056 147.969 129.633C148.391 130.911 148.813 132.18 149.244 133.457C150.088 135.58 150.726 139.611 152.208 141.311C153.69 143.011 155.809 142.796 157.722 142.588C160.479 142.373 163.443 142.165 166.2 142.165C168.32 142.165 170.017 140.465 170.017 138.342C170.233 134.941 170.862 131.334 171.077 127.942C179.133 127.718 189.731 120.286 185.914 111.794V111.793ZM156.24 135.149C155.396 132.387 154.543 129.625 153.061 127.294C155.396 125.81 157.3 123.894 158.782 121.771C160.479 123.471 162.384 125.171 164.503 126.233C163.866 128.995 163.443 131.757 163.021 134.51C160.91 134.303 158.575 134.51 156.24 135.148L156.24 135.149Z" fill="#140F26"/>
<rect width="1.6289" height="11.9283" rx="0.814449" transform="matrix(0.95349 -0.301424 0.369061 0.929405 121 24.7885)" fill="#140F26"/>
<rect width="1.6289" height="11.9283" rx="0.814449" transform="matrix(0.95349 -0.301424 0.369061 0.929405 128 41.7885)" fill="#140F26"/>
<rect width="1.6289" height="11.9283" rx="0.814449" transform="matrix(-0.428281 -0.903645 -0.932046 0.36234 125.316 44.5919)" fill="#140F26"/>
<rect width="1.6289" height="11.9283" rx="0.814449" transform="matrix(-0.428281 -0.903645 -0.932046 0.36234 150.403 34.6312)" fill="#140F26"/>
<rect width="1.6289" height="11.9283" rx="0.814449" transform="matrix(0.95349 -0.301424 0.369061 0.929405 127.273 22.491)" fill="#140F26"/>
<rect width="1.6289" height="11.9283" rx="0.814449" transform="matrix(0.95349 -0.301424 0.369061 0.929405 134.273 39.491)" fill="#140F26"/>
<rect width="1.6289" height="11.9283" rx="0.814449" transform="matrix(-0.428281 -0.903645 -0.932046 0.36234 122.728 38.4327)" fill="#140F26"/>
<rect width="1.6289" height="11.9283" rx="0.814449" transform="matrix(-0.428281 -0.903645 -0.932046 0.36234 147.815 28.4719)" fill="#140F26"/>
<path d="M40.7925 13.604C40.7925 13.604 43.9386 2 33.909 2C23.8822 2 23.0947 5.93342 24.2747 10.458C25.4542 14.9797 21.3159 -1.43893 13.6478 3.18235C5.97725 7.80355 3.81424 12.8256 8.73101 14.7923C13.6478 16.759 1.07471 8.87756 1.07471 15.9571C1.07471 23.0367 -0.0901026 30.7048 6.77877 26.3788C13.6476 22.0532 -6.39705 32.2789 9.53276 35.2286C25.4597 38.1787 19.7499 28.1403 19.7499 28.1403" stroke="black" stroke-width="2"/>
<path d="M18.3863 35.3834C18.3863 35.3834 6.42519 36.6038 10.0191 45.9662C13.613 55.3284 17.5671 54.6557 21.3688 51.9339C25.1676 49.2092 11.3218 58.9578 18.3837 64.4629C25.4457 69.965 30.9101 70.1844 30.986 64.8901C31.0591 59.5957 28.2057 74.1559 34.8168 71.6181C41.4252 69.0807 49.002 67.4214 42.5021 62.5602C36.002 57.699 52.7307 72.7446 49.7774 56.8182C46.8214 40.8912 39.4989 49.8205 39.4989 49.8205" stroke="black" stroke-width="2"/>
<path d="M21.0755 16.1791C16.5948 14.4758 14.5257 19.9165 15.0993 23.2324" stroke="black" stroke-width="2"/>
<path d="M27.0695 51.7856C26.089 56.4741 31.7872 57.6682 34.9713 56.5824" stroke="black" stroke-width="2"/>
<path d="M74.4078 28.24C74.4078 28.24 64.8672 28.6848 49.2707 23.3613" stroke="black" stroke-width="2"/>
<path d="M74.4431 34.1019C74.4431 34.1019 64.8875 33.3527 49.2707 42.3433" stroke="black" stroke-width="2"/>
<path d="M40.8301 17.5052C47.3361 17.9354 45.2932 25.5681 40.3209 25.6675C35.3485 25.7699 42.3345 29.6594 37.2333 33.0837C32.1321 36.505 29.7588 30.4381 30.5633 26.9436" stroke="black" stroke-width="2"/>
<path d="M37.4561 37.5319C38.9165 34.3711 42.329 36.8499 41.4276 39.3464C40.5262 41.8457 43.8011 39.1063 44.5327 42.3052C45.2615 45.5011 41.7846 45.5245 40.1955 44.4534" stroke="black" stroke-width="2"/>
<path d="M272.651 35.4215C272.651 35.4215 270.869 23.5314 280.831 24.6923C290.79 25.8529 291.117 29.851 289.422 34.2086C287.727 38.5634 293.737 22.7341 300.819 28.2119C307.903 33.6898 309.47 38.9285 304.359 40.3129C299.248 41.6973 312.649 35.3241 311.829 42.3561C311.01 49.388 311.279 57.1394 304.957 52.0475C298.635 46.9559 317.361 59.433 301.197 60.519C285.036 61.6058 291.869 52.2958 291.869 52.2958" stroke="black" stroke-width="2"/>
<path d="M292.385 59.6481C292.385 59.6481 304.125 62.2447 299.471 71.1282C294.818 80.0115 290.968 78.8856 287.507 75.7421C284.049 72.596 296.674 83.8817 289.022 88.5324C281.371 93.1801 275.918 92.7655 276.455 87.498C276.995 82.2308 278.144 97.0234 271.871 93.7375C265.601 90.4522 258.267 87.9271 265.286 83.8508C272.305 79.7746 253.947 92.7829 258.724 77.3054C263.504 61.8275 269.744 71.5444 269.744 71.5444" stroke="black" stroke-width="2"/>
<path d="M291.937 40.2615C296.585 39.0883 298.01 44.7319 297.057 47.9591" stroke="black" stroke-width="2"/>
<path d="M281.862 74.935C282.293 79.7054 276.495 80.2319 273.458 78.7849" stroke="black" stroke-width="2"/>
<path d="M237.567 46.0683C237.567 46.0683 246.992 47.6145 263.1 44.132" stroke="black" stroke-width="2"/>
<path d="M236.854 51.8868C236.854 51.8868 246.432 52.2486 260.903 62.9865" stroke="black" stroke-width="2"/>
<path d="M272.162 39.2921C265.65 38.9664 266.795 46.7843 271.723 47.4585C276.65 48.1358 269.261 51.1905 273.931 55.1823C278.602 59.171 281.662 53.4196 281.267 49.8555" stroke="black" stroke-width="2"/>
<path d="M273.195 59.5748C272.11 56.2662 268.434 58.3334 269.04 60.9174C269.646 63.5043 266.71 60.4043 265.613 63.4969C264.52 66.587 267.97 67.0127 269.673 66.1327" stroke="black" stroke-width="2"/>
<defs>
<radialGradient id="paint0_radial" cx="0" cy="0" r="1" gradientUnits="userSpaceOnUse" gradientTransform="translate(120.659 170.473) rotate(56.7382) scale(120.466 140.834)">
<stop stop-color="#F7C970"/>
<stop offset="1" stop-color="#E9B44D"/>
</radialGradient>
<radialGradient id="paint1_radial" cx="0" cy="0" r="1" gradientUnits="userSpaceOnUse" gradientTransform="translate(124.5 44) rotate(62.354) scale(118.533 124.197)">
<stop stop-color="#F7C970"/>
<stop offset="1" stop-color="#E9B44D"/>
</radialGradient>
</defs>
</svg>
