<svg width="375" height="361" viewBox="0 0 375 361" fill="none" xmlns="http://www.w3.org/2000/svg">
<path d="M16.8302 111.469C16.0963 115.129 10.9685 113.671 11.7023 110.735C19.0318 74.8307 74.7128 104.874 69.5864 66.0443C69.5864 62.3843 73.9803 61.6503 74.7143 65.3104C80.5759 110.001 21.959 80.6938 16.8302 111.47V111.469ZM144.33 60.9051C142.128 59.4373 144.33 55.0435 147.266 57.2451C147.266 57.2451 161.925 67.5007 167.786 81.426C197.828 84.3615 191.233 92.4155 187.573 90.9476C187.573 90.9476 178.776 87.2876 169.988 85.8197C179.51 126.851 122.359 80.6918 162.659 80.6918C156.797 69.7023 144.34 60.9048 144.34 60.9048L144.33 60.9051ZM164.851 85.8199C137.01 84.3521 173.648 112.926 164.851 85.8199V85.8199ZM96.7016 75.5644L115.021 93.8834L96.7016 112.202L78.3826 93.8834L96.7016 75.5644ZM96.7016 82.1599L84.9781 93.8834L96.7016 105.607L108.425 93.8834L96.7016 82.1599ZM62.2659 156.895C59.3303 157.629 57.138 153.235 60.0642 152.501C93.7655 137.117 101.095 200.13 130.405 173.746C132.606 171.544 135.532 175.214 133.34 177.406C100.371 208.182 90.8402 142.97 62.2653 156.885L62.2659 156.895ZM37.3511 172.278C35.8832 169.343 40.2866 167.15 41.745 169.343L62.9901 208.173C65.1918 211.108 60.7884 213.301 59.3301 210.374L37.3511 172.269V172.278ZM196.351 120.989C195.617 118.054 200.011 117.329 200.745 120.255L213.203 177.405C213.937 181.065 208.809 181.799 208.075 178.873L196.351 120.989ZM40.2766 219.18C47.6061 226.509 35.8827 238.233 28.5531 230.903C21.2236 222.84 32.9471 211.85 40.2766 219.18ZM36.6166 222.84C30.021 216.244 30.021 233.095 36.6166 227.234C38.0844 225.766 38.0844 223.574 36.6166 222.84ZM141.393 200.127C148.722 208.19 137.733 219.18 130.403 211.85C123.074 204.521 134.063 192.797 141.393 200.127ZM137.733 203.787C131.871 197.925 131.871 214.776 137.733 208.181C139.2 207.447 139.2 205.245 137.733 203.787ZM61.5315 126.851C68.861 134.181 57.8715 145.17 49.808 137.841C42.4785 130.511 54.2019 119.522 61.5315 126.851ZM57.8715 129.787C52.0098 123.925 52.0098 140.776 57.8715 134.915C59.3393 133.447 59.3393 131.255 57.8715 129.787ZM126.021 241.161L101.106 260.948L95.9779 230.172L126.021 241.161ZM102.574 237.501L104.775 252.16L116.499 242.638L102.574 237.51L102.574 237.501ZM16.1148 145.181L13.1792 176.691L-12.4701 158.372L16.1048 145.181H16.1148ZM-2.93823 159.106L8.78524 167.903L10.253 153.244L-2.93823 159.106ZM180.977 159.84L199.296 178.893L180.977 197.212L161.924 178.893L180.977 159.84ZM180.977 167.169L169.253 178.893L180.977 190.616L192.7 178.893L180.977 167.169ZM173.647 118.808L163.392 148.85L142.871 124.669L173.647 118.808ZM152.402 127.606L161.924 138.595L166.318 124.67L152.393 127.606H152.402ZM123.093 52.1367C130.422 59.4662 119.433 70.4557 112.103 63.1262C104.774 55.7967 115.763 44.0732 123.093 52.1367ZM119.433 55.0722C113.571 49.2106 113.571 66.0617 119.433 59.4662C120.901 58.7323 120.901 56.5306 119.433 55.0722ZM130.422 81.4535C131.89 78.5179 136.284 79.9857 134.816 83.6552L114.295 137.879C112.828 140.815 108.434 139.347 109.168 136.412L130.413 81.4554L130.422 81.4535ZM180.252 222.134C181.72 219.199 186.114 222.134 183.912 225.07C183.912 225.07 172.923 238.995 158.997 244.857C154.603 274.166 146.54 267.57 148.008 263.176C148.008 263.176 152.402 255.112 153.869 246.325C113.57 254.388 161.199 199.43 159.731 238.995C170.72 233.867 180.252 222.144 180.252 222.144L180.252 222.134ZM154.603 241.187C157.538 213.347 126.762 248.517 154.603 241.187V241.187Z" fill="#FF3A79"/>
<path d="M186.83 161.469C186.096 165.129 180.969 163.671 181.702 160.735C189.032 124.831 244.713 154.874 239.586 116.044C239.586 112.384 243.98 111.65 244.714 115.31C250.576 160.001 191.959 130.694 186.83 161.47V161.469ZM314.33 110.905C312.128 109.437 314.33 105.043 317.266 107.245C317.266 107.245 331.925 117.501 337.786 131.426C367.828 134.362 361.233 142.415 357.573 140.948C357.573 140.948 348.776 137.288 339.988 135.82C349.51 176.851 292.359 130.692 332.659 130.692C326.797 119.702 314.34 110.905 314.34 110.905L314.33 110.905ZM334.851 135.82C307.01 134.352 343.648 162.926 334.851 135.82V135.82ZM266.702 125.564L285.021 143.883L266.702 162.202L248.383 143.883L266.702 125.564ZM266.702 132.16L254.978 143.883L266.702 155.607L278.425 143.883L266.702 132.16ZM232.266 206.895C229.33 207.629 227.138 203.235 230.064 202.501C263.765 187.117 271.095 250.13 300.405 223.746C302.606 221.544 305.532 225.214 303.34 227.406C270.371 258.182 260.84 192.97 232.265 206.885L232.266 206.895ZM207.351 222.278C205.883 219.343 210.287 217.15 211.745 219.343L232.99 258.173C235.192 261.108 230.788 263.301 229.33 260.374L207.351 222.269V222.278ZM366.351 170.989C365.617 168.054 370.011 167.329 370.745 170.255L383.203 227.405C383.937 231.065 378.809 231.799 378.075 228.873L366.351 170.989ZM210.277 269.18C217.606 276.509 205.883 288.233 198.553 280.903C191.224 272.84 202.947 261.85 210.277 269.18ZM206.617 272.84C200.021 266.244 200.021 283.095 206.617 277.234C208.084 275.766 208.084 273.574 206.617 272.84ZM311.393 250.127C318.722 258.19 307.733 269.18 300.403 261.85C293.074 254.521 304.063 242.797 311.393 250.127ZM307.733 253.787C301.871 247.925 301.871 264.776 307.733 258.181C309.2 257.447 309.2 255.245 307.733 253.787ZM231.531 176.851C238.861 184.181 227.871 195.17 219.808 187.841C212.478 180.511 224.202 169.522 231.531 176.851ZM227.871 179.787C222.01 173.925 222.01 190.776 227.871 184.915C229.339 183.447 229.339 181.255 227.871 179.787ZM296.021 291.161L271.106 310.948L265.978 280.172L296.021 291.161ZM272.574 287.501L274.775 302.16L286.499 292.638L272.574 287.51L272.574 287.501ZM186.115 195.181L183.179 226.691L157.53 208.372L186.105 195.181H186.115ZM167.062 209.106L178.785 217.903L180.253 203.244L167.062 209.106ZM350.977 209.84L369.296 228.893L350.977 247.212L331.924 228.893L350.977 209.84ZM350.977 217.169L339.253 228.893L350.977 240.616L362.7 228.893L350.977 217.169ZM343.647 168.808L333.392 198.85L312.871 174.669L343.647 168.808ZM322.402 177.606L331.924 188.595L336.318 174.67L322.393 177.606H322.402ZM293.093 102.137C300.422 109.466 289.433 120.456 282.103 113.126C274.774 105.797 285.763 94.0732 293.093 102.137ZM289.433 105.072C283.571 99.2106 283.571 116.062 289.433 109.466C290.901 108.732 290.901 106.531 289.433 105.072ZM300.422 131.453C301.89 128.518 306.284 129.986 304.816 133.655L284.295 187.879C282.828 190.815 278.434 189.347 279.168 186.412L300.413 131.455L300.422 131.453ZM350.252 272.134C351.72 269.199 356.114 272.134 353.912 275.07C353.912 275.07 342.923 288.995 328.997 294.857C324.603 324.166 316.54 317.57 318.008 313.176C318.008 313.176 322.402 305.112 323.869 296.325C283.57 304.388 331.199 249.43 329.731 288.995C340.72 283.867 350.252 272.144 350.252 272.144L350.252 272.134ZM324.603 291.187C327.538 263.347 296.762 298.517 324.603 291.187V291.187Z" fill="#FF3A79"/>
<ellipse cx="190.5" cy="284.5" rx="92.5" ry="70.5" fill="url(#paint0_radial)"/>
<path d="M194.5 233C245.5 233 265 207.5 265 162.5C252.5 135.5 256.581 134 260 123.5C260 123.5 267 110 260 100.018C253 90.0356 234 100.018 234 100.018C228 104.5 224.5 102 219 100.018C198 98 226 85 194.5 88C183.627 88 172.26 94.8901 157.5 94C140.5 83 125.08 84.4005 118.5 92C112.186 99.293 115 107.5 122 121C114.5 138.5 111 154.029 111 162.5C111 203.645 145.5 233 194.5 233Z" fill="url(#paint1_radial)"/>
<path d="M152.637 160.017C146.606 160.017 139.915 165.911 143.301 172.497C144.361 174.404 147.946 166.896 151.632 166.896C155.317 166.896 157.258 174.197 160.007 172.497C162.519 166.896 158.667 160.017 152.637 160.017Z" fill="black"/>
<path d="M257 137.573C257 163.807 241.33 185.073 222 185.073C202.67 185.073 187 163.807 187 137.573C187 111.34 202.67 102.573 222 102.573C241.33 102.573 257 111.34 257 137.573Z" fill="#F8E4BD"/>
<path d="M190.5 353C241.953 353 280 320.997 280 285.5C280 260.646 261.347 237.504 232.5 225.862L241 220.903C269.175 234.14 288 258.117 288 285.5C288 327.198 244.348 361 190.5 361C136.652 361 93 327.198 93 285.5C93 257.315 112.944 232.738 142.5 219.768L148.5 225C120.903 237.11 101 261.411 101 285.5C101 320.997 139.047 353 190.5 353Z" fill="#140F26"/>
<path d="M268.578 170.407C267.518 158.945 264.124 146.835 258.618 135.59C268.578 125.613 272.18 105.021 261.16 95.4663C250.984 86.5506 234.243 90.374 226.825 100.99C222.163 98.4439 217.071 96.5279 211.772 95.4663C211.988 95.4663 211.988 95.4663 212.195 95.2507C215.374 94.1891 219.191 93.9734 222.155 92.2816C223.637 91.4356 223.852 88.6739 222.155 87.8195C221.94 86.9735 221.517 86.3349 220.458 86.1193C199.9 81.45 177.85 82.7188 158.352 90.5814C150.089 77.2036 129.53 75.2961 117.451 85.4808C107.913 93.5507 107.069 115.628 118.511 122.42C102.614 147.053 100.917 179.963 118.933 204.172C140.55 233.043 178.919 240.474 212.616 235.166C227.453 232.827 243.133 227.735 254.163 217.119C266.665 205.018 270.06 187.394 268.578 170.409L268.578 170.407ZM260.522 184.423C255.861 228.371 198.838 235.38 164.504 226.042C124.448 214.995 100.495 173.593 119.571 134.528C121.475 130.497 123.81 126.674 126.352 123.066C127.196 122.005 127.412 120.727 126.137 119.881C121.26 116.058 117.443 109.265 117.236 102.68C118.511 98.4337 122.535 95.4646 127.196 96.0948C132.711 96.9407 136.95 101.403 138.009 106.926C138.854 110.957 145.428 108.834 143.731 104.588C140.336 96.5177 133.977 89.3022 124.232 90.5711C135.252 84.8401 146.91 89.0865 154.544 98.0022C155.819 99.7025 158.146 99.2795 159.628 98.0022C175.102 91.6327 192.481 89.5095 209.654 90.5711C206.897 91.6327 203.933 92.91 202.235 95.0332C201.813 95.4562 201.598 95.8791 201.391 96.3104C200.969 97.795 201.606 99.4952 203.295 100.134C210.929 102.68 217.917 105.658 224.491 109.265C225.551 110.965 227.885 111.604 229.574 110.111C236.148 103.526 245.471 93.5486 255.009 101.403C253.734 101.187 252.674 101.187 251.614 101.403C244.411 102.464 238.897 108.411 236.14 114.781C234.443 118.604 239.957 122.212 241.861 118.181C243.765 114.15 245.885 109.904 250.124 107.988C254.148 106.288 256.698 107.565 259.447 109.265C260.929 117.335 255.423 127.312 250.331 132.62C248.211 134.744 249.693 138.144 252.028 138.99C258.826 152.998 262.005 169.137 260.523 184.422L260.522 184.423Z" fill="#140F26"/>
<path d="M217.914 190.793C217.07 188.886 214.519 189.093 213.037 190.155C209.22 193.555 208.583 199.07 202.224 198.863C196.925 198.648 195.65 195.04 194.168 191.432C194.168 191.009 194.168 190.586 193.953 190.155C195.65 188.878 197.132 186.97 198.407 185.27C200.949 181.869 202.431 178.054 204.129 174.231C205.611 170.623 199.467 167.861 197.554 171.469C196.495 173.808 195.013 175.931 193.531 178.054C192.686 179.116 192.049 180.393 191.196 181.455C190.981 181.878 190.558 182.093 190.351 182.516C188.869 181.455 186.75 180.609 185.268 179.547C182.933 177.847 180.606 175.94 178.065 174.662C175.73 173.385 172.981 175.94 174.248 178.486C176.152 181.886 179.124 184.432 182.088 186.556C183.786 187.833 185.69 189.525 187.809 190.586C187.594 191.009 187.594 191.432 187.594 191.864C185.69 196.749 183.355 201.634 177.419 202.479C170.215 203.757 168.303 198.656 165.761 193.348C165.123 192.071 162.797 191.863 162.159 193.348C158.558 201.841 168.518 209.272 176.152 209.272C177.427 209.272 178.694 209.056 179.969 208.633C180.391 209.911 180.813 211.18 181.244 212.457C182.088 214.58 182.726 218.611 184.208 220.311C185.69 222.011 187.809 221.796 189.722 221.588C192.479 221.373 195.443 221.165 198.2 221.165C200.32 221.165 202.017 219.465 202.017 217.342C202.233 213.941 202.862 210.334 203.077 206.942C211.133 206.718 221.731 199.286 217.914 190.794V190.793ZM188.24 214.149C187.396 211.387 186.543 208.625 185.061 206.294C187.396 204.81 189.3 202.894 190.782 200.771C192.479 202.471 194.384 204.171 196.503 205.233C195.866 207.995 195.443 210.757 195.021 213.51C192.91 213.303 190.575 213.51 188.24 214.148L188.24 214.149Z" fill="#140F26"/>
<path d="M229.366 158.1C224.489 156.616 219.19 160.008 220.043 165.109C219.828 165.955 219.621 166.809 219.621 167.655C219.621 171.901 223.438 175.302 227.462 175.509C231.279 175.509 234.665 172.747 235.725 169.139C236.991 164.47 233.812 159.585 229.366 158.1H229.366Z" fill="#140F26"/>
<path d="M254.409 25.2716L275.881 24.2568L275.882 24.2606C277.38 24.1692 278.799 24.9407 279.541 26.2451C280.168 27.4447 280.077 28.8867 279.309 29.9945L266.9 47.9215L274.455 67.9547C274.962 69.2969 274.631 70.8132 273.606 71.8238C272.494 72.8629 270.927 73.2581 269.456 72.8709L249.339 66.7791L232.979 79.9414C231.806 80.8492 230.248 81.0835 228.862 80.5644C227.449 80.0703 226.504 78.7454 226.493 77.2515L226.034 55.8345L207.854 43.8449C206.678 43.094 206.053 41.719 206.259 40.3344C206.494 38.9001 207.509 37.7126 208.893 37.2573L229.164 30.1649L234.673 9.91845C235.108 8.48539 236.305 7.41386 237.78 7.1399C239.261 6.81698 240.797 7.37461 241.726 8.57527L254.409 25.2716ZM254.642 30.598C252.909 30.6912 251.244 29.9236 250.193 28.5438L239.095 13.9235L234.281 31.6637C233.807 33.3034 232.569 34.6137 230.955 35.1772L213.609 41.2491L228.995 51.4049C230.445 52.3335 231.33 53.9246 231.357 55.6462L231.761 74.0904L246.04 62.545C247.393 61.479 249.176 61.1333 250.826 61.6173L268.385 66.9317L261.88 49.6701C261.295 48.0923 261.514 46.327 262.471 44.94L273.018 29.721L254.664 30.5927L254.642 30.598Z" fill="#F2EA23"/>
<defs>
<radialGradient id="paint0_radial" cx="0" cy="0" r="1" gradientUnits="userSpaceOnUse" gradientTransform="translate(152.659 249.473) rotate(56.7382) scale(120.466 140.834)">
<stop stop-color="#F7C970"/>
<stop offset="1" stop-color="#E9B44D"/>
</radialGradient>
<radialGradient id="paint1_radial" cx="0" cy="0" r="1" gradientUnits="userSpaceOnUse" gradientTransform="translate(156.5 123) rotate(62.354) scale(118.533 124.197)">
<stop stop-color="#F7C970"/>
<stop offset="1" stop-color="#E9B44D"/>
</radialGradient>
</defs>
</svg>
