<svg width="195" height="282" viewBox="0 0 195 282" fill="none" xmlns="http://www.w3.org/2000/svg">
<ellipse cx="97.5" cy="205.5" rx="92.5" ry="70.5" fill="url(#paint0_radial)"/>
<path d="M101.5 154C152.5 154 172 128.5 172 83.5001C159.5 56.5001 163.581 55.0001 167 44.5001C167 44.5001 174 31.0001 167 21.0178C160 11.0356 141 21.0178 141 21.0178C135 25.5001 131.5 22.9998 126 21.0178C105 19.0001 133 6.00007 101.5 9.00007C90.6271 9.00007 79.2597 15.8902 64.5 15.0001C47.5 4.00006 32.0795 5.40057 25.5 13.0001C19.1858 20.293 22 28.5001 29 42.0001C21.5 59.5001 18 75.029 18 83.5001C18 124.645 52.5 154 101.5 154Z" fill="url(#paint1_radial)"/>
<path d="M69.3923 77.0479C70.0064 76.9293 70.2779 76.2431 69.8874 75.7762C69.7686 75.6342 69.6038 75.5343 69.4144 75.5054C68.3293 75.34 64.306 74.9647 59.2729 77.3981C54.4936 79.7088 51.6102 83.282 50.6807 84.5665C50.4735 84.8528 50.502 85.2289 50.7337 85.5059C51.0807 85.9207 51.7383 85.9591 52.1314 85.5946C53.6376 84.1984 57.2114 81.0806 60.5693 79.6154C63.6558 78.2686 67.4191 77.4293 69.3923 77.0479Z" fill="#140F26"/>
<path d="M164 58.5731C164 84.8066 148.33 106.073 129 106.073C109.67 106.073 94 84.8066 94 58.5731C94 32.3396 109.67 23.5731 129 23.5731C148.33 23.5731 164 32.3396 164 58.5731Z" fill="#F8E4BD"/>
<path d="M97.5 274C148.953 274 187 241.997 187 206.5C187 181.646 168.347 158.504 139.5 146.862L148 141.903C176.175 155.14 195 179.117 195 206.5C195 248.198 151.348 282 97.5 282C43.6522 282 0 248.198 0 206.5C0 178.315 19.9441 153.738 49.5 140.768L55.5 146C27.9028 158.11 8 182.411 8 206.5C8 241.997 46.047 274 97.5 274Z" fill="#140F26"/>
<path d="M126.857 77.0479C126.243 76.9293 125.971 76.2431 126.362 75.7762C126.481 75.6342 126.645 75.5343 126.835 75.5054C127.92 75.34 131.943 74.9647 136.976 77.3981C141.756 79.7088 144.639 83.282 145.568 84.5665C145.776 84.8528 145.747 85.2289 145.515 85.5059C145.168 85.9207 144.511 85.9591 144.118 85.5946C142.612 84.1984 139.038 81.0806 135.68 79.6154C132.593 78.2686 128.83 77.4293 126.857 77.0479Z" fill="#140F26"/>
<path d="M175.578 91.4065C174.518 79.9447 171.124 67.8348 165.618 56.5904C175.578 46.6131 179.18 26.0207 168.16 16.4663C157.984 7.55059 141.243 11.374 133.825 21.99C129.163 19.4439 124.071 17.5279 118.772 16.4663C118.988 16.4663 118.988 16.4663 119.195 16.2507C122.374 15.1891 126.191 14.9734 129.155 13.2816C130.637 12.4356 130.852 9.67387 129.155 8.8195C128.94 7.97353 128.517 7.33491 127.458 7.11928C106.9 2.44995 84.8501 3.71878 65.3522 11.5814C57.0893 -1.79643 36.5304 -3.70391 24.451 6.48084C14.9129 14.5507 14.0685 36.6281 25.5108 43.4202C9.61403 68.0534 7.91668 100.963 25.933 125.172C47.5505 154.043 85.9188 161.474 119.616 156.166C134.453 153.827 150.133 148.735 161.163 138.119C173.665 126.018 177.06 108.394 175.578 91.4086L175.578 91.4065ZM167.522 105.423C162.861 149.371 105.838 156.38 71.5036 147.042C31.448 135.995 7.4948 94.5926 26.5709 55.528C28.4752 51.4973 30.81 47.6738 33.3518 44.0661C34.1963 43.0045 34.4116 41.7272 33.1365 40.8813C28.2598 37.0579 24.4429 30.2654 24.2361 23.6801C25.5111 19.4337 29.535 16.4646 34.1963 17.0948C39.7106 17.9407 43.9497 22.4027 45.0095 27.9264C45.854 31.9571 52.428 29.834 50.7306 25.5875C47.3359 17.5177 40.9772 10.3022 31.2323 11.5711C42.2524 5.84014 53.9095 10.0865 61.5442 19.0022C62.8193 20.7025 65.1458 20.2795 66.6278 19.0022C82.1023 12.6327 99.481 10.5095 116.654 11.5711C113.897 12.6327 110.933 13.91 109.235 16.0332C108.813 16.4562 108.598 16.8791 108.391 17.3104C107.969 18.795 108.606 20.4952 110.295 21.1338C117.929 23.68 124.917 26.6575 131.491 30.2653C132.551 31.9655 134.885 32.6042 136.574 31.1112C143.148 24.5259 152.471 14.5486 162.009 22.4028C160.734 22.1871 159.674 22.1871 158.614 22.4028C151.411 23.4643 145.897 29.411 143.14 35.7806C141.443 39.604 146.957 43.2117 148.861 39.1811C150.765 35.1504 152.885 30.904 157.124 28.988C161.148 27.2878 163.698 28.5651 166.447 30.2653C167.929 38.3351 162.423 48.3124 157.331 53.6204C155.211 55.7436 156.693 59.1441 159.028 59.99C165.826 73.9982 169.005 90.1372 167.523 105.422L167.522 105.423Z" fill="#140F26"/>
<path d="M124.914 111.793C124.07 109.886 121.519 110.093 120.037 111.155C116.22 114.555 115.583 120.07 109.224 119.863C103.925 119.648 102.65 116.04 101.168 112.432C101.168 112.009 101.168 111.586 100.953 111.155C102.65 109.878 104.132 107.97 105.407 106.27C107.949 102.869 109.431 99.0543 111.129 95.2309C112.611 91.6231 106.467 88.8613 104.554 92.469C103.495 94.8079 102.013 96.9311 100.531 99.0543C99.6862 100.116 99.0486 101.393 98.1958 102.455C97.9805 102.878 97.5583 103.093 97.3513 103.516C95.8692 102.455 93.7497 101.609 92.2677 100.547C89.9328 98.8471 87.6063 96.9396 85.0646 95.6623C82.7296 94.3851 79.981 96.9395 81.2476 99.4857C83.1519 102.886 86.1243 105.432 89.0883 107.556C90.7857 108.833 92.6899 110.525 94.8095 111.586C94.5942 112.009 94.5942 112.432 94.5942 112.863C92.6899 117.749 90.3551 122.634 84.4186 123.479C77.2155 124.757 75.3028 119.656 72.761 114.348C72.1235 113.071 69.797 112.863 69.1594 114.348C65.5579 122.841 75.5181 130.272 83.1519 130.272C84.427 130.272 85.6937 130.056 86.9689 129.633C87.3911 130.911 87.8134 132.179 88.2439 133.457C89.0884 135.58 89.726 139.611 91.2079 141.311C92.69 143.011 94.8095 142.796 96.7222 142.588C99.4793 142.373 102.443 142.165 105.2 142.165C107.32 142.165 109.017 140.465 109.017 138.342C109.233 134.941 109.862 131.333 110.077 127.941C118.133 127.718 128.731 120.286 124.914 111.794V111.793ZM95.2402 135.148C94.3956 132.387 93.5429 129.625 92.0608 127.294C94.3957 125.81 96.2999 123.894 97.7819 121.771C99.4793 123.471 101.384 125.171 103.503 126.233C102.866 128.995 102.443 131.756 102.021 134.51C99.9098 134.302 97.5748 134.51 95.2401 135.148L95.2402 135.148Z" fill="#140F26"/>
<path d="M136.366 79.1004C131.489 77.6159 126.19 81.008 127.043 86.1087C126.828 86.9546 126.621 87.8089 126.621 88.6548C126.621 92.9012 130.438 96.3017 134.462 96.5089C138.279 96.5089 141.665 93.7471 142.725 90.1393C143.991 85.47 140.812 80.585 136.366 79.1004H136.366Z" fill="#140F26"/>
<path d="M63.3661 79.1004C58.4894 77.6159 53.1905 81.008 54.0434 86.1087C53.8281 86.9546 53.6211 87.8089 53.6211 88.6548C53.6211 92.9012 57.438 96.3017 61.4618 96.5089C65.2787 96.5089 68.6649 93.7471 69.7247 90.1393C70.9915 85.47 67.8121 80.585 63.366 79.1004H63.3661Z" fill="#140F26"/>
<path d="M77 41.1053C77 46.0177 72.9706 50 68 50C63.0294 50 59 46.0177 59 41.1053C59 36.1928 68 24 68 24C68 24 77 36.1928 77 41.1053Z" fill="#695CFF"/>
<circle cx="66.5" cy="85.5" r="1.5" fill="#C4C4C4"/>
<circle cx="131.5" cy="84.5" r="1.5" fill="#C4C4C4"/>
<defs>
<radialGradient id="paint0_radial" cx="0" cy="0" r="1" gradientUnits="userSpaceOnUse" gradientTransform="translate(59.6591 170.473) rotate(56.7382) scale(120.466 140.834)">
<stop stop-color="#F7C970"/>
<stop offset="1" stop-color="#E9B44D"/>
</radialGradient>
<radialGradient id="paint1_radial" cx="0" cy="0" r="1" gradientUnits="userSpaceOnUse" gradientTransform="translate(63.5 44.0001) rotate(62.354) scale(118.533 124.197)">
<stop stop-color="#F7C970"/>
<stop offset="1" stop-color="#E9B44D"/>
</radialGradient>
</defs>
</svg>
