<svg width="28" height="27" viewBox="0 0 28 27" fill="none" xmlns="http://www.w3.org/2000/svg">
<path fill-rule="evenodd" clip-rule="evenodd" d="M2.06069 23.6881C1.47491 24.2739 1.47491 25.2236 2.06069 25.8094C2.64648 26.3952 3.59623 26.3952 4.18201 25.8094L13.935 16.0564L23.6881 25.8094C24.2739 26.3952 25.2236 26.3952 25.8094 25.8094C26.3952 25.2237 26.3952 24.2739 25.8094 23.6881L16.0564 13.9351L26.8094 3.182C27.3952 2.59621 27.3952 1.64646 26.8094 1.06068C26.2236 0.474891 25.2739 0.474892 24.6881 1.06068L13.935 11.8137L3.182 1.0607C2.59621 0.474917 1.64646 0.474917 1.06068 1.0607C0.474891 1.64649 0.474892 2.59624 1.06068 3.18202L11.8137 13.9351L2.06069 23.6881Z" fill="white"/>
</svg>
