<svg width="100" height="100" viewBox="0 0 100 100" fill="none" xmlns="http://www.w3.org/2000/svg">
<path d="M90.398 47.602L87.5972 46.3012C87.2964 46.1996 86.9956 46.0004 86.7964 45.9028C88.4956 43.8012 89.4956 41.0044 89.4956 38.0044C89.4956 31.5044 84.894 26.2034 79.0976 26.2034C73.3984 26.2034 68.6996 31.5042 68.6996 38.0044C68.6996 41.0044 69.6996 43.8052 71.3988 45.9028C71.098 46.102 70.8988 46.2036 70.598 46.3012L67.7972 47.602C65.3988 48.7036 63.4964 50.5004 62.1956 52.8012C61.8949 52.602 61.4964 52.4028 61.1956 52.3012L58.5003 51.0004C58.1996 50.8988 57.8988 50.6996 57.6996 50.602C59.3988 48.5004 60.3988 45.7036 60.3988 42.7036C60.3988 36.2036 55.7972 30.9026 50.0008 30.9026C44.2 30.9026 39.6028 36.2034 39.6028 42.7036C39.6028 45.7036 40.6028 48.5044 42.302 50.602C42.0012 50.8012 41.802 50.9028 41.5012 51.0004L38.7004 52.3012C38.3019 52.5004 38.0012 52.602 37.7004 52.8012C36.5012 50.602 34.5012 48.6996 32.0988 47.602L29.298 46.3012C28.9972 46.1996 28.6964 46.0004 28.4972 45.9028C30.1964 43.8012 31.1964 41.0044 31.1964 38.0044C31.1964 31.5044 26.5948 26.2034 20.7984 26.2034C14.9976 26.2034 10.4004 31.5042 10.4004 38.0044C10.4004 41.0044 11.4004 43.8052 13.0996 45.9028C12.7988 46.102 12.5996 46.2036 12.2988 46.3012L9.49802 47.602C5.19722 49.5004 2.39642 53.8012 2.39642 58.602V63.5004C2.39642 66.602 4.89642 69.102 7.99802 69.102H31.697C32.197 71.7036 34.3962 73.7036 37.197 73.7036H62.697C65.3962 73.7036 67.697 71.7036 68.197 69.102H91.896C94.9976 69.102 97.4976 66.602 97.4976 63.5004V58.602C97.5015 53.8989 94.7007 49.602 90.3999 47.602H90.398ZM79.199 30.102C82.8006 30.102 85.8006 33.7036 85.8006 38.102C85.8006 42.5004 82.8006 46.102 79.199 46.102C75.5974 46.102 72.5974 42.5004 72.5974 38.102C72.6013 33.6997 75.4997 30.102 79.199 30.102ZM50 34.6997C53.6016 34.6997 56.6016 38.3013 56.6016 42.6997C56.6016 47.0981 53.6016 50.6997 50 50.6997C46.3984 50.6997 43.3984 47.0981 43.3984 42.6997C43.3984 38.3013 46.3984 34.6997 50 34.6997ZM20.801 30.102C24.4026 30.102 27.4026 33.7036 27.4026 38.102C27.4026 42.5004 24.4026 46.102 20.801 46.102C17.1994 46.102 14.1994 42.5004 14.1994 38.102C14.1994 33.6997 17.1994 30.102 20.801 30.102ZM6.301 63.5V58.6016C6.301 55.4024 8.1994 52.4024 11.1994 51.1016L14.0002 49.8008C14.801 49.4024 15.5002 49 16.1994 48.5C17.5978 49.3008 19.1994 49.8008 20.8986 49.8008C22.5978 49.8008 24.1994 49.3008 25.5978 48.5C26.297 49 26.9962 49.3984 27.797 49.8008L30.5978 51.1016C32.4962 51.9024 33.8986 53.4024 34.6994 55.3008C32.801 57.5 31.6994 60.3008 31.6994 63.3008V65.4024L8.1014 65.3985C7.1014 65.3008 6.3006 64.5001 6.3006 63.5001L6.301 63.5ZM64.602 68.1016C64.602 69.1016 63.8012 69.9024 62.8012 69.9024L37.1992 69.8985C36.1992 69.8985 35.3984 69.0977 35.3984 68.0977V63.1993C35.3984 60.0001 37.2968 57.0001 40.2968 55.6993L43.0976 54.3985C43.8984 54.0001 44.5976 53.5977 45.2968 53.0977C46.6952 53.8985 48.2968 54.3985 49.996 54.3985C51.6952 54.3985 53.2968 53.8985 54.6952 53.0977C55.3944 53.5977 56.0936 53.9961 56.8944 54.3985L59.6952 55.6993C62.5936 57.0001 64.5936 60.0001 64.5936 63.1993L64.602 68.1016ZM93.7 63.5C93.7 64.5 92.8992 65.3008 91.8992 65.3008H68.3012V63.1992C68.3012 60.1992 67.1996 57.3984 65.3012 55.1992C66.102 53.3984 67.602 51.8984 69.4028 51L72.2036 49.6992C73.0044 49.3008 73.7036 48.8984 74.4028 48.3984C75.8012 49.1992 77.4028 49.6992 79.102 49.6992C80.8012 49.6992 82.4028 49.1992 83.8012 48.3984C84.5004 48.8984 85.1996 49.2968 86.0004 49.6992L88.8012 51C91.6996 52.3008 93.6996 55.3008 93.6996 58.5L93.7 63.5Z" fill="white"/>
</svg>
