<svg width="35" height="21" viewBox="0 0 35 21" fill="none" xmlns="http://www.w3.org/2000/svg">
<path fill-rule="evenodd" clip-rule="evenodd" d="M0 1.5C0 0.671573 0.671573 0 1.5 0H33.5C34.3284 0 35 0.671573 35 1.5C35 2.32843 34.3284 3 33.5 3H1.5C0.671574 3 0 2.32843 0 1.5ZM0 10.5C0 9.67157 0.671573 9 1.5 9H33.5C34.3284 9 35 9.67157 35 10.5C35 11.3284 34.3284 12 33.5 12H1.5C0.671574 12 0 11.3284 0 10.5ZM1.5 18C0.671573 18 0 18.6716 0 19.5C0 20.3284 0.671574 21 1.5 21H33.5C34.3284 21 35 20.3284 35 19.5C35 18.6716 34.3284 18 33.5 18H1.5Z" fill="#14D2B8"/>
</svg>
