<svg width="86" height="86" viewBox="0 0 86 86" fill="none" xmlns="http://www.w3.org/2000/svg">
<path d="M18.164 46.3763C21.7787 46.3763 24.5065 41.2634 24.5065 34.4808C24.5065 27.7016 21.7821 22.5887 18.164 22.5887C14.5494 22.5887 11.8215 27.7017 11.8215 34.4843C11.8215 41.2635 14.5494 46.3763 18.164 46.3763ZM18.164 25.683C19.4574 25.683 21.4092 29.1935 21.4092 34.4808C21.4092 39.7681 19.454 43.2786 18.164 43.2786C16.8707 43.2786 14.9189 39.7681 14.9189 34.4808C14.9189 29.1935 16.874 25.6856 18.164 25.6856V25.683Z" fill="white"/>
<path d="M18.1606 62.6123H30.0191C32.0885 72.6399 36.9092 79.544 42.674 79.6412C42.7144 79.6445 42.7547 79.6445 42.7983 79.6445C43.2149 79.6445 43.6113 79.4799 43.9036 79.1809L47.6426 75.3747V75.3781C47.8677 75.1497 48.1801 75.022 48.5026 75.0287C48.8251 75.0354 49.1308 75.1732 49.3492 75.4117L50.6526 76.8629V76.8596C51.4622 77.7633 52.6212 78.2806 53.8339 78.2806C55.0466 78.2806 56.2056 77.7666 57.0152 76.8629L58.3086 75.415H58.3119C58.5303 75.1732 58.8394 75.0354 59.1619 75.0287C59.4877 75.022 59.8002 75.1496 60.0286 75.3814L61.8191 77.2022C62.622 78.0152 63.7171 78.4721 64.8627 78.4721C66.0049 78.4721 67.1035 78.0152 67.9063 77.2022L69.707 75.3781C69.9287 75.1362 70.2445 75.0086 70.5737 75.0287C70.8929 75.0321 71.1986 75.1698 71.4136 75.4117L72.717 76.8629V76.8596C73.5266 77.7633 74.6788 78.2805 75.8916 78.2805C77.1044 78.2805 78.2599 77.7666 79.0695 76.8663L80.3663 75.4251V75.4217C80.467 75.3075 80.5913 75.2168 80.7324 75.153C81.1691 74.9749 81.5017 74.6088 81.6361 74.1552C81.7705 73.7051 81.6899 73.2145 81.4177 72.8282C78.1256 68.1419 76.1603 60.2611 76.1603 51.6C76.1603 51.6 76.157 34.5178 76.157 34.4843C76.157 18.7119 70.0664 6.35626 62.286 6.35626H18.1637C10.3901 6.35962 4.29965 18.7119 4.29965 34.4843C4.29965 50.2532 10.3868 62.6089 18.1603 62.6123H18.1606ZM24.5803 59.5183V59.5149C26.4784 57.4287 27.9565 55.0033 28.9441 52.3628C28.9744 54.7546 29.1558 57.1466 29.485 59.5149L24.5803 59.5183ZM60.395 9.44994H62.2897C67.48 9.44994 73.0363 19.5618 73.0595 34.4802L73.0628 51.5994C73.0763 60.1187 74.9273 68.1037 78.0683 73.3479L76.7615 74.7992C76.5398 75.0444 76.224 75.1855 75.8915 75.1822C75.5589 75.1822 75.2431 75.0411 75.0248 74.7958L73.718 73.3446C72.9285 72.4678 71.8166 71.9571 70.6408 71.9303C69.4617 71.8967 68.3195 72.3603 67.4965 73.2069L65.6958 75.031H65.6992C65.4808 75.2528 65.1785 75.377 64.8694 75.377C64.5536 75.3737 64.2513 75.2494 64.0262 75.031L62.2424 73.2136C61.4126 72.3771 60.2771 71.9135 59.1014 71.9303C57.9189 71.9572 56.8002 72.4678 56.0074 73.3446L54.7107 74.7958C54.4856 75.0411 54.1698 75.1822 53.8339 75.1822C53.5013 75.1822 53.1822 75.0411 52.9605 74.7958L51.6537 73.3412C50.8643 72.4678 49.749 71.9571 48.5699 71.9303C47.3941 71.9068 46.2586 72.367 45.4322 73.2102L42.1972 76.4991C37.1884 75.76 32.0552 65.9408 32.032 51.5995C32.0353 51.5659 32.0353 34.4838 32.0353 34.4838C32.032 23.4379 29.0421 14.076 24.5842 9.45346L60.395 9.44994ZM18.1673 9.44994C23.3676 9.44994 28.9371 19.5076 28.9371 34.4802C28.9371 49.4528 23.3672 59.5105 18.1673 59.5105C12.9674 59.5105 7.39753 49.4528 7.39753 34.4802C7.39753 19.5111 12.9641 9.44994 18.1647 9.44994H18.1673Z" fill="white"/>
</svg>
