<svg width="100" height="100" viewBox="0 0 100 100" fill="none" xmlns="http://www.w3.org/2000/svg">
<path d="M54.688 6.25C52.1177 6.25 50.0005 8.3672 50.0005 10.9375C50.0005 12.957 51.3169 14.6797 53.1255 15.332V22.0625C52.0982 21.9492 51.0591 21.875 50.0005 21.875C49.3833 21.875 48.7739 21.8984 48.1646 21.9414C47.5318 20.0976 45.7935 18.75 43.7505 18.75C41.1802 18.75 39.063 20.8672 39.063 23.4375C39.063 23.6602 39.0982 23.875 39.1294 24.0898C37.6216 24.7266 36.1841 25.4882 34.8247 26.3671L29.2114 20.7538C29.5044 20.1406 29.6841 19.4686 29.6841 18.7499C29.6841 16.1796 27.5669 14.0624 24.9966 14.0624C22.4263 14.0624 20.3091 16.1796 20.3091 18.7499C20.3091 21.3202 22.4263 23.4374 24.9966 23.4374C25.7153 23.4374 26.3911 23.2578 27.0005 22.9648L32.2661 28.2304C30.9536 29.3007 29.7466 30.4882 28.645 31.7734C28.0122 31.4531 27.3091 31.2499 26.5591 31.2499C23.9888 31.2499 21.8716 33.3671 21.8716 35.9374C21.8716 37.496 22.6567 38.8749 23.8404 39.7304C23.3287 41.0273 22.9146 42.3671 22.5982 43.7499H15.3326C14.6802 41.9413 12.9576 40.6249 10.9381 40.6249C8.36778 40.6249 6.25058 42.7421 6.25058 45.3124C6.25058 47.8827 8.36778 49.9999 10.9381 49.9999C12.9576 49.9999 14.6803 48.6835 15.3326 46.8749H22.0631C21.9498 47.9022 21.8756 48.9413 21.8756 49.9999C21.8756 50.6171 21.899 51.2265 21.942 51.8358C20.0982 52.4687 18.7506 54.2069 18.7506 56.2499C18.7506 58.8202 20.8678 60.9374 23.4381 60.9374C23.6607 60.9374 23.8756 60.9023 24.0904 60.871C24.5787 62.0233 25.1412 63.1327 25.7701 64.1991L19.1842 70.785C18.5748 70.4921 17.903 70.3124 17.1842 70.3124C14.6139 70.3124 12.4967 72.4296 12.4967 74.9999C12.4967 77.5702 14.6139 79.6874 17.1842 79.6874C19.7545 79.6874 21.8717 77.5702 21.8717 74.9999C21.8717 74.285 21.692 73.6093 21.3991 72.9999L27.5436 66.8554C28.7858 68.5038 30.2038 70.0077 31.7702 71.3476C31.4499 71.9804 31.2467 72.6835 31.2467 73.4335C31.2467 76.0038 33.3639 78.121 35.9342 78.121C37.4928 78.121 38.8717 77.3358 39.7272 76.1522C41.0241 76.6639 42.3639 77.078 43.7467 77.3944V84.6639C41.9381 85.3162 40.6217 87.0389 40.6217 89.0584C40.6217 91.6287 42.7389 93.7459 45.3092 93.7459C47.8795 93.7459 49.9967 91.6287 49.9967 89.0584C49.9967 87.0389 48.6803 85.3162 46.8717 84.6639V77.9334C47.899 78.0467 48.9381 78.1209 49.9967 78.1209C50.6139 78.1209 51.2233 78.0974 51.8326 78.0545C52.4654 79.8983 54.2037 81.2459 56.2467 81.2459C58.817 81.2459 60.9342 79.1287 60.9342 76.5584C60.9342 76.3357 60.8991 76.1209 60.8678 75.906C62.3756 75.2693 63.8092 74.5076 65.1725 73.6287L70.7858 79.242C70.4929 79.8514 70.3171 80.5272 70.3171 81.2459C70.3171 83.8162 72.4265 85.9412 74.9968 85.9412C77.5671 85.9412 79.6765 83.8162 79.6765 81.2459C79.6765 78.6756 77.5671 76.5623 74.9968 76.5623C74.278 76.5623 73.6023 76.742 72.9929 77.035L67.7273 71.7694C69.0398 70.6991 70.2468 69.5116 71.3484 68.2264C71.9812 68.5467 72.6843 68.7498 73.4343 68.7498C76.0046 68.7498 78.1218 66.6326 78.1218 64.0623C78.1218 62.5037 77.3366 61.1248 76.153 60.2693C76.6647 58.9724 77.0788 57.6326 77.3952 56.2498H84.6647C85.317 58.0584 87.0397 59.3748 89.0592 59.3748C91.6295 59.3748 93.7467 57.2576 93.7467 54.6873C93.7467 52.117 91.6295 49.9998 89.0592 49.9998C87.0397 49.9998 85.317 51.3162 84.6647 53.1248H77.9342C78.0475 52.0975 78.1217 51.0584 78.1217 49.9998C78.1217 49.9022 78.1139 49.8084 78.11 49.7108C79.9225 49.0623 81.2428 47.3358 81.2428 45.3124C81.2428 42.7421 79.1255 40.6249 76.5553 40.6249C76.5318 40.6249 76.5006 40.6288 76.4771 40.6327C75.8756 38.9413 75.1255 37.3202 74.2232 35.7968L80.8013 29.2187C81.4107 29.5117 82.0825 29.6913 82.8013 29.6913C85.3716 29.6913 87.4888 27.5741 87.4888 25.0038C87.4888 22.4335 85.3716 20.3163 82.8013 20.3163C80.231 20.3163 78.1138 22.4335 78.1138 25.0038C78.1138 25.7187 78.2935 26.3944 78.5865 27.0038L72.4381 33.1522C71.1959 31.5038 69.7858 29.9999 68.2193 28.66C68.5435 28.0272 68.7427 27.3202 68.7427 26.5662C68.7427 23.9959 66.6255 21.8787 64.0552 21.8787C62.4966 21.8787 61.1177 22.6639 60.2622 23.8475C58.9653 23.3358 57.6255 22.9218 56.2427 22.6053V15.3358C58.0513 14.6835 59.3677 12.9608 59.3677 10.9413C59.3677 8.37105 57.2505 6.25385 54.6802 6.25385L54.688 6.25ZM54.688 9.375C55.5708 9.375 56.2505 10.0547 56.2505 10.9375C56.2505 11.8203 55.5708 12.5 54.688 12.5C53.8052 12.5 53.1255 11.8203 53.1255 10.9375C53.1255 10.0547 53.8052 9.375 54.688 9.375ZM25 17.1875C25.8828 17.1875 26.5625 17.8672 26.5625 18.75C26.5625 19.6328 25.8828 20.3125 25 20.3125C24.1172 20.3125 23.4375 19.6328 23.4375 18.75C23.4375 17.8672 24.1172 17.1875 25 17.1875ZM43.75 21.875C44.6328 21.875 45.3125 22.5547 45.3125 23.4375C45.3125 24.3203 44.6328 25 43.75 25C42.8672 25 42.1875 24.3203 42.1875 23.4375C42.1875 22.5547 42.8672 21.875 43.75 21.875ZM82.812 23.4375C83.6948 23.4375 84.3745 24.1172 84.3745 25C84.3745 25.8828 83.6948 26.5625 82.812 26.5625C81.9292 26.5625 81.2495 25.8828 81.2495 25C81.2495 24.1172 81.9292 23.4375 82.812 23.4375ZM50 25C53.3398 25 56.5 25.7031 59.4102 26.8906C59.586 29.3086 61.6055 31.25 64.0625 31.25C64.7539 31.25 65.4063 31.0859 66 30.8125C69.4297 33.6719 72.0664 37.4375 73.5781 41.7425C72.5469 42.6058 71.875 43.8831 71.875 45.3167C71.875 47.3323 73.1875 49.055 74.9922 49.7073C74.9922 49.805 75.0039 49.9026 75.0039 50.0042C75.0039 53.344 74.3008 56.5042 73.1133 59.4144C70.6953 59.5902 68.7539 61.6097 68.7539 64.0667C68.7539 64.7581 68.918 65.4144 69.1914 66.0081C66.5898 69.1253 63.2383 71.5862 59.418 73.1448C58.5782 72.3674 57.4688 71.8831 56.25 71.8831C54.2578 71.8831 52.5508 73.1643 51.8789 74.93C51.2578 74.9769 50.6328 75.0081 50 75.0081C46.6602 75.0081 43.5 74.305 40.5898 73.1175C40.4141 70.6995 38.3945 68.7581 35.9375 68.7581C35.2461 68.7581 34.5898 68.9222 33.9961 69.1956C30.8789 66.594 28.418 63.2425 26.8594 59.4222C27.6368 58.5863 28.1211 57.473 28.1211 56.2542C28.1211 54.262 26.8438 52.555 25.0742 51.8831C25.0274 51.262 24.9961 50.637 24.9961 50.0042C24.9961 46.6644 25.6992 43.5042 26.8867 40.594C29.3047 40.4182 31.2461 38.3987 31.2461 35.9417C31.2461 35.2503 31.082 34.594 30.8086 34.0003C33.4102 30.8831 36.7617 28.4222 40.582 26.8636C41.4218 27.6409 42.5312 28.1253 43.75 28.1253C45.7422 28.1253 47.4492 26.848 48.1211 25.0784C48.7422 25.0315 49.3672 25.0003 50 25.0003L50 25ZM64.062 25C64.9448 25 65.6245 25.6797 65.6245 26.5625C65.6245 27.4453 64.9448 28.125 64.062 28.125C63.1792 28.125 62.4995 27.4453 62.4995 26.5625C62.4995 25.6797 63.1792 25 64.062 25ZM26.562 34.375C27.4448 34.375 28.1245 35.0547 28.1245 35.9375C28.1245 36.8203 27.4448 37.5 26.562 37.5C25.6792 37.5 24.9995 36.8203 24.9995 35.9375C24.9995 35.0547 25.6792 34.375 26.562 34.375ZM10.937 43.75C11.8198 43.75 12.4995 44.4297 12.4995 45.3125C12.4995 46.1953 11.8198 46.875 10.937 46.875C10.0542 46.875 9.37451 46.1953 9.37451 45.3125C9.37451 44.4297 10.0542 43.75 10.937 43.75ZM76.562 43.75C77.4448 43.75 78.1245 44.4297 78.1245 45.3125C78.1245 46.1953 77.4448 46.875 76.562 46.875C75.6792 46.875 74.9995 46.1953 74.9995 45.3125C74.9995 44.4297 75.6792 43.75 76.562 43.75ZM89.062 53.125C89.9448 53.125 90.6245 53.8047 90.6245 54.6875C90.6245 55.5703 89.9448 56.25 89.062 56.25C88.1792 56.25 87.4995 55.5703 87.4995 54.6875C87.4995 53.8047 88.1792 53.125 89.062 53.125ZM23.437 54.6875C24.3198 54.6875 24.9995 55.3672 24.9995 56.25C24.9995 57.1328 24.3198 57.8125 23.437 57.8125C22.5542 57.8125 21.8745 57.1328 21.8745 56.25C21.8745 55.3672 22.5542 54.6875 23.437 54.6875ZM73.437 62.5C74.3198 62.5 74.9995 63.1797 74.9995 64.0625C74.9995 64.9453 74.3198 65.625 73.437 65.625C72.5542 65.625 71.8745 64.9453 71.8745 64.0625C71.8745 63.1797 72.5542 62.5 73.437 62.5ZM35.937 71.875C36.8198 71.875 37.4995 72.5547 37.4995 73.4375C37.4995 74.3203 36.8198 75 35.937 75C35.0542 75 34.3745 74.3203 34.3745 73.4375C34.3745 72.5547 35.0542 71.875 35.937 71.875ZM17.187 73.4375C18.0698 73.4375 18.7495 74.1172 18.7495 75C18.7495 75.8828 18.0698 76.5625 17.187 76.5625C16.3042 76.5625 15.6245 75.8828 15.6245 75C15.6245 74.1172 16.3042 73.4375 17.187 73.4375ZM56.249 75C57.1318 75 57.8115 75.6797 57.8115 76.5625C57.8115 77.4453 57.1318 78.125 56.249 78.125C55.3662 78.125 54.6865 77.4453 54.6865 76.5625C54.6865 75.6797 55.3662 75 56.249 75ZM74.999 79.6875C75.8818 79.6875 76.5537 80.3672 76.5537 81.2461C76.5537 82.1289 75.8779 82.8164 74.999 82.8164C74.1162 82.8164 73.4443 82.1289 73.4443 81.2461C73.4443 80.3633 74.1201 79.6875 74.999 79.6875ZM45.311 87.5C46.1938 87.5 46.8735 88.1797 46.8735 89.0625C46.8735 89.9453 46.1938 90.625 45.311 90.625C44.4282 90.625 43.7485 89.9453 43.7485 89.0625C43.7485 88.1797 44.4282 87.5 45.311 87.5Z" fill="white"/>
<path d="M45.312 59.375C42.7417 59.375 40.6245 61.4922 40.6245 64.0625C40.6245 66.6328 42.7417 68.75 45.312 68.75C47.8823 68.75 49.9995 66.6328 49.9995 64.0625C49.9995 61.4922 47.8823 59.375 45.312 59.375ZM45.312 62.5C46.1948 62.5 46.8745 63.1797 46.8745 64.0625C46.8745 64.9453 46.1948 65.625 45.312 65.625C44.4292 65.625 43.7495 64.9453 43.7495 64.0625C43.7495 63.1797 44.4292 62.5 45.312 62.5Z" fill="white"/>
<path d="M39.062 39.062C36.4917 39.062 34.3745 41.1792 34.3745 43.7495C34.3745 46.3198 36.4917 48.437 39.062 48.437C41.6323 48.437 43.7495 46.3198 43.7495 43.7495C43.7495 41.1792 41.6323 39.062 39.062 39.062ZM39.062 42.187C39.9448 42.187 40.6245 42.8667 40.6245 43.7495C40.6245 44.6323 39.9448 45.312 39.062 45.312C38.1792 45.312 37.4995 44.6323 37.4995 43.7495C37.4995 42.8667 38.1792 42.187 39.062 42.187Z" fill="white"/>
<path d="M57.812 32.812C55.2417 32.812 53.1245 34.9292 53.1245 37.4995C53.1245 40.0698 55.2417 42.187 57.812 42.187C60.3823 42.187 62.4995 40.0698 62.4995 37.4995C62.4995 34.9292 60.3823 32.812 57.812 32.812ZM57.812 35.937C58.6948 35.937 59.3745 36.6167 59.3745 37.4995C59.3745 38.3823 58.6948 39.062 57.812 39.062C56.9292 39.062 56.2495 38.3823 56.2495 37.4995C56.2495 36.6167 56.9292 35.937 57.812 35.937Z" fill="white"/>
<path d="M40.625 54.688C40.625 55.5513 39.9258 56.2505 39.0625 56.2505C38.6484 56.2505 38.25 56.0864 37.957 55.7935C37.664 55.5005 37.5 55.102 37.5 54.688C37.5 54.2739 37.664 53.8755 37.957 53.5825C38.25 53.2895 38.6484 53.1254 39.0625 53.1254C39.9258 53.1254 40.625 53.8246 40.625 54.6879V54.688Z" fill="white"/>
<path d="M35.938 60.938C35.938 61.352 35.774 61.7505 35.481 62.0435C35.188 62.3365 34.7896 62.5005 34.3755 62.5005C33.5122 62.5005 32.813 61.8013 32.813 60.938C32.813 60.524 32.977 60.1255 33.27 59.8325C33.563 59.5395 33.9614 59.3755 34.3755 59.3755C34.7896 59.3755 35.188 59.5395 35.481 59.8325C35.774 60.1255 35.938 60.5239 35.938 60.938L35.938 60.938Z" fill="white"/>
<path d="M57.812 67.188C57.812 67.602 57.648 68.0005 57.355 68.2935C57.062 68.5865 56.6636 68.7505 56.2495 68.7505C55.3862 68.7505 54.687 68.0513 54.687 67.188C54.687 66.774 54.851 66.3755 55.144 66.0825C55.437 65.7895 55.8354 65.6255 56.2495 65.6255C56.6636 65.6255 57.062 65.7895 57.355 66.0825C57.648 66.3755 57.812 66.7739 57.812 67.188L57.812 67.188Z" fill="white"/>
<path d="M48.438 35.938C48.438 36.8013 47.7388 37.5005 46.8755 37.5005C46.0122 37.5005 45.313 36.8013 45.313 35.938C45.313 35.0747 46.0122 34.3755 46.8755 34.3755C47.7388 34.3755 48.438 35.0747 48.438 35.938Z" fill="white"/>
<path d="M64.062 46.875C61.4917 46.875 59.3745 48.9922 59.3745 51.5625C59.3745 54.1328 61.4917 56.25 64.062 56.25C66.6323 56.25 68.7495 54.1328 68.7495 51.5625C68.7495 48.9922 66.6323 46.875 64.062 46.875ZM64.062 50C64.9448 50 65.6245 50.6797 65.6245 51.5625C65.6245 52.4453 64.9448 53.125 64.062 53.125C63.1792 53.125 62.4995 52.4453 62.4995 51.5625C62.4995 50.6797 63.1792 50 64.062 50Z" fill="white"/>
<path d="M48.438 51.562C48.438 52.4253 47.7388 53.1245 46.8755 53.1245C46.4615 53.1245 46.063 52.9605 45.77 52.6675C45.477 52.3745 45.313 51.9761 45.313 51.562C45.313 51.1479 45.477 50.7495 45.77 50.4565C46.063 50.1635 46.4614 49.9995 46.8755 49.9995C47.7388 49.9995 48.438 50.6987 48.438 51.562V51.562Z" fill="white"/>
<path d="M51.562 45.312C51.562 46.1753 50.8628 46.8745 49.9995 46.8745C49.5855 46.8745 49.187 46.7105 48.894 46.4175C48.601 46.1245 48.437 45.7261 48.437 45.312C48.437 44.8979 48.601 44.4995 48.894 44.2065C49.187 43.9135 49.5854 43.7495 49.9995 43.7495C50.8628 43.7495 51.562 44.4487 51.562 45.312V45.312Z" fill="white"/>
<path d="M42.188 32.812C42.188 33.6753 41.4888 34.3745 40.6255 34.3745C40.2115 34.3745 39.813 34.2105 39.52 33.9175C39.227 33.6245 39.063 33.2261 39.063 32.812C39.063 32.3979 39.227 31.9995 39.52 31.7065C39.813 31.4135 40.2114 31.2495 40.6255 31.2495C41.4888 31.2495 42.188 31.9487 42.188 32.812V32.812Z" fill="white"/>
<path d="M54.688 54.688C54.688 55.102 54.524 55.5005 54.231 55.7935C53.938 56.0865 53.5396 56.2505 53.1255 56.2505C52.2622 56.2505 51.563 55.5513 51.563 54.688C51.563 54.274 51.727 53.8755 52.02 53.5825C52.313 53.2895 52.7114 53.1255 53.1255 53.1255C53.5396 53.1255 53.938 53.2895 54.231 53.5825C54.524 53.8755 54.688 54.2739 54.688 54.688L54.688 54.688Z" fill="white"/>
<path d="M57.812 60.938C57.812 61.352 57.648 61.7505 57.355 62.0435C57.062 62.3365 56.6636 62.5005 56.2495 62.5005C55.3862 62.5005 54.687 61.8013 54.687 60.938C54.687 60.524 54.851 60.1255 55.144 59.8325C55.437 59.5395 55.8354 59.3755 56.2495 59.3755C56.6636 59.3755 57.062 59.5395 57.355 59.8325C57.648 60.1255 57.812 60.5239 57.812 60.938L57.812 60.938Z" fill="white"/>
<path d="M64.062 60.938C64.062 61.352 63.898 61.7505 63.605 62.0435C63.312 62.3365 62.9136 62.5005 62.4995 62.5005C61.6362 62.5005 60.937 61.8013 60.937 60.938C60.937 60.524 61.101 60.1255 61.394 59.8325C61.687 59.5395 62.0854 59.3755 62.4995 59.3755C62.9136 59.3755 63.312 59.5395 63.605 59.8325C63.898 60.1255 64.062 60.5239 64.062 60.938L64.062 60.938Z" fill="white"/>
<path d="M68.75 42.188C68.75 42.602 68.586 43.0005 68.293 43.2935C68 43.5865 67.6016 43.7505 67.1875 43.7505C66.3242 43.7505 65.625 43.0513 65.625 42.188C65.625 41.774 65.7891 41.3755 66.082 41.0825C66.375 40.7895 66.7734 40.6255 67.1875 40.6255C67.6016 40.6255 68 40.7895 68.293 41.0825C68.586 41.3755 68.7501 41.7739 68.7501 42.188L68.75 42.188Z" fill="white"/>
<path d="M32.812 50C32.812 50.4141 32.648 50.8125 32.355 51.1055C32.062 51.3985 31.6636 51.5625 31.2495 51.5625C30.3862 51.5625 29.687 50.8633 29.687 50C29.687 49.586 29.851 49.1875 30.144 48.8945C30.437 48.6015 30.8354 48.4375 31.2495 48.4375C31.6636 48.4375 32.062 48.6016 32.355 48.8945C32.648 49.1875 32.812 49.5859 32.812 50L32.812 50Z" fill="white"/>
</svg>
