<svg width="80" height="96" viewBox="0 0 80 96" fill="none" xmlns="http://www.w3.org/2000/svg">
<path d="M79.898 47.66L79.5308 46.3827C79.5269 46.371 79.5113 46.3632 79.5074 46.3554C79.4996 46.3436 79.5035 46.328 79.4957 46.3163L78.566 45.1327C78.5582 45.1249 78.5464 45.1249 78.5386 45.1171C78.5308 45.1093 78.5308 45.0975 78.523 45.0897L77.0894 44.0936C77.0816 44.0897 77.0738 44.0936 77.0699 44.0897C77.062 44.0858 77.062 44.078 77.0542 44.0741L75.2261 43.3124C75.2183 43.3085 75.2144 43.3163 75.2066 43.3124C75.1988 43.3085 75.1988 43.3007 75.191 43.3007L73.0816 42.8514C73.0738 42.8514 73.0699 42.8554 73.066 42.8554C73.062 42.8554 73.0581 42.8475 73.0503 42.8475L70.8159 42.7069H70.8042C70.8003 42.7069 70.7964 42.7108 70.7925 42.7108C70.7886 42.7108 70.7847 42.7069 70.7808 42.7069L70.3433 42.7538V33.5546C70.3433 33.5429 70.3316 33.539 70.3316 33.5273C70.3277 33.5155 70.3394 33.5077 70.3355 33.4999L69.9683 32.2343C69.9644 32.2187 69.9487 32.2148 69.9448 32.2031C69.937 32.1913 69.9409 32.1757 69.9331 32.164L68.9917 30.9687C68.9839 30.9609 68.9722 30.9609 68.9683 30.9531C68.9605 30.9453 68.9605 30.9335 68.9526 30.9296L67.5307 29.9179C67.5229 29.914 67.5151 29.9179 67.5073 29.9101C67.4995 29.9062 67.4956 29.8945 67.4878 29.8945L65.644 29.1484C65.6362 29.1445 65.6323 29.1523 65.6245 29.1484C65.6166 29.1445 65.6166 29.1406 65.6088 29.1367L63.5111 28.6718C63.5033 28.6718 63.4994 28.6758 63.4955 28.6758C63.4877 28.6758 63.4838 28.6679 63.4799 28.6679L61.2299 28.5547C61.226 28.5547 61.2221 28.5586 61.2182 28.5625C61.2103 28.5625 61.2103 28.5547 61.2025 28.5586L59.7494 28.6953V19.3945C59.7494 19.3828 59.7377 19.3789 59.7377 19.3671C59.7338 19.3554 59.7455 19.3476 59.7416 19.3398L59.3783 18.0586C59.3744 18.043 59.3588 18.0391 59.3549 18.0274C59.3471 18.0156 59.351 18 59.3432 17.9922L58.4135 16.8242C58.4057 16.8164 58.394 16.8164 58.3901 16.8086C58.3822 16.8008 58.3822 16.789 58.3744 16.7812L56.9252 15.7695C56.9174 15.7656 56.9096 15.7695 56.9057 15.7656C56.8979 15.7617 56.8979 15.7539 56.8901 15.75L55.062 14.9922C55.0542 14.9883 55.0503 14.9961 55.0424 14.9922C55.0346 14.9883 55.0346 14.9805 55.0268 14.9805L52.9174 14.5312C52.9096 14.5312 52.9057 14.5352 52.9018 14.5352C52.894 14.5352 52.894 14.5273 52.8862 14.5273L50.6635 14.3984H50.6517C50.6478 14.3984 50.6478 14.4023 50.6439 14.4023C50.64 14.4023 50.64 14.3984 50.6361 14.3984L50.1791 14.4375V5.24609C50.1791 5.23437 50.1674 5.23047 50.1674 5.21875C50.1635 5.20703 50.1752 5.19922 50.1713 5.1914L49.808 3.9141C49.8041 3.89848 49.7885 3.89457 49.7846 3.88285C49.7767 3.87114 49.7807 3.85551 49.7728 3.84379L48.8432 2.64849C48.8353 2.64068 48.8236 2.64068 48.8158 2.63287C48.808 2.62505 48.808 2.61334 48.8002 2.60943L47.3666 1.61334C47.3588 1.60943 47.351 1.61334 47.3471 1.60943C47.3392 1.60553 47.3392 1.59771 47.3314 1.59381L45.5033 0.832088C45.4955 0.828182 45.4916 0.835995 45.4838 0.832088C45.476 0.828182 45.476 0.820369 45.4682 0.820369L43.3588 0.355529C43.351 0.355529 43.3471 0.359435 43.3431 0.359435C43.3353 0.359435 43.3314 0.351622 43.3275 0.351622L41.0775 0.238342C41.0736 0.238342 41.0697 0.242249 41.0619 0.246155C41.058 0.246155 41.0541 0.238342 41.0463 0.242249L38.8393 0.453189C38.8315 0.453189 38.8315 0.461002 38.8236 0.461002C38.8158 0.461002 38.8119 0.457095 38.808 0.457095L36.7416 1.00398C36.7338 1.00788 36.7338 1.01569 36.726 1.01569C36.7182 1.0196 36.7143 1.01179 36.7065 1.01569L34.9917 1.8321C34.9839 1.83601 34.9839 1.84773 34.976 1.85164C34.9682 1.85554 34.9604 1.85164 34.9526 1.85945L33.6245 2.91025C33.6128 2.91806 33.6167 2.92978 33.6089 2.93759C33.6011 2.9454 33.5893 2.9454 33.5815 2.95712L32.7964 4.17982C32.7886 4.19154 32.7925 4.20717 32.7886 4.22279C32.7847 4.23451 32.769 4.24232 32.769 4.25795L32.5581 5.55095C32.5581 5.55876 32.562 5.56267 32.562 5.56657C32.562 5.57439 32.5542 5.57829 32.5542 5.5822V14.758L32.5268 14.7502C32.519 14.7502 32.5151 14.7541 32.5112 14.7541C32.5034 14.7541 32.4995 14.7463 32.4956 14.7463L30.2729 14.633H30.2612C30.2573 14.633 30.2534 14.6369 30.2534 14.6369C30.2495 14.6369 30.2455 14.633 30.2455 14.633L28.0111 14.8283C28.0033 14.8283 27.9994 14.8361 27.9955 14.8361C27.9877 14.84 27.9838 14.8322 27.976 14.8322L25.9369 15.3791C25.9291 15.383 25.9291 15.3908 25.9213 15.3908C25.9135 15.3947 25.9095 15.3869 25.9017 15.3908L24.1595 16.2189C24.1517 16.2228 24.1517 16.2346 24.1439 16.2385C24.1361 16.2424 24.1283 16.2385 24.1205 16.2463L22.8002 17.301C22.7924 17.3088 22.7924 17.3205 22.7845 17.3283C22.7767 17.3361 22.765 17.3361 22.7572 17.3479L21.972 18.5588C21.9642 18.5744 21.9681 18.5861 21.9642 18.6017C21.9603 18.6134 21.9447 18.6213 21.9447 18.6369L21.7338 19.9181C21.7338 19.9259 21.7377 19.9298 21.7377 19.9337C21.7377 19.9415 21.7299 19.9454 21.7299 19.9493V29.254L21.2103 29.1486C21.2025 29.1486 21.1986 29.1525 21.1947 29.1525C21.1908 29.1525 21.1869 29.1447 21.183 29.1447L18.9486 29.0157H18.9369C18.933 29.0157 18.929 29.0196 18.9251 29.0196C18.9212 29.0196 18.9173 29.0157 18.9173 29.0157L16.7103 29.2267C16.7025 29.2267 16.7025 29.2345 16.6947 29.2345C16.6908 29.2345 16.683 29.2306 16.6791 29.2306L14.6244 29.7657C14.6166 29.7697 14.6166 29.7736 14.6088 29.7775C14.6009 29.7814 14.5931 29.7736 14.5892 29.7775L12.847 30.5939C12.8392 30.5978 12.8353 30.6095 12.8314 30.6134C12.8236 30.6173 12.8119 30.6173 12.808 30.6212L11.4994 31.6876C11.4915 31.6954 11.4915 31.7072 11.4837 31.715C11.4759 31.7228 11.4642 31.7228 11.4564 31.7345L10.6556 32.9572C10.6478 32.9689 10.6517 32.9845 10.6478 32.9963C10.64 33.0119 10.6283 33.0158 10.6244 33.0314L10.4134 34.3087C10.4134 34.3165 10.4173 34.3204 10.4173 34.3243C10.4173 34.3322 10.4095 34.3361 10.4095 34.34V42.9806L9.87046 42.9298C9.86264 42.9298 9.85874 42.9337 9.85483 42.9337C9.85092 42.9337 9.84702 42.9298 9.83921 42.9298L7.58921 43.0587C7.58139 43.0587 7.58139 43.0665 7.57358 43.0665C7.56577 43.0665 7.56186 43.0626 7.55796 43.0626L5.44855 43.5118C5.44074 43.5118 5.44074 43.5196 5.43293 43.5235C5.42512 43.5274 5.42121 43.5196 5.4134 43.5235L3.5853 44.2813C3.57748 44.2853 3.57748 44.2931 3.56967 44.297C3.56186 44.3009 3.55405 44.297 3.54624 44.3009L2.12434 45.3126C2.11652 45.3204 2.11652 45.3321 2.10871 45.336C2.1009 45.3438 2.08918 45.3438 2.08527 45.3516L1.15558 46.5196C1.14777 46.5314 1.15168 46.5431 1.14386 46.5548C1.13605 46.5665 1.12433 46.5704 1.12043 46.586L0.741517 47.8672C0.73761 47.879 0.745423 47.8868 0.745423 47.8946C0.745423 47.9063 0.733704 47.9102 0.733704 47.9219V62.0979C0.733704 62.1057 0.741517 62.1097 0.741517 62.1175C0.741517 62.1253 0.73761 62.1292 0.73761 62.1331L0.96417 63.4104C0.968075 63.426 0.979795 63.4338 0.987607 63.4495C0.991514 63.4612 0.987606 63.4729 0.99542 63.4846L1.78448 64.7073C1.78839 64.7151 1.8001 64.7151 1.80792 64.719C1.81573 64.7307 1.81573 64.7425 1.82745 64.7542L3.14775 65.8245C3.15556 65.8323 3.16728 65.8284 3.17509 65.8323C3.1829 65.8362 3.1829 65.8479 3.19072 65.8479L4.62432 66.5237V72.2893C4.62432 72.2971 4.63213 72.301 4.63213 72.3088C4.63213 72.3166 4.62822 72.3205 4.62822 72.3284L4.90947 73.68C4.92119 73.7268 4.94463 73.7659 4.97979 73.7932L6.38599 74.8909C6.40161 74.9027 6.42114 74.9027 6.43677 74.9105C6.44849 74.9144 6.45239 74.93 6.46411 74.93L9.31961 75.5628H9.33133L10.8508 75.8011L11.2024 75.8597C11.2141 75.8636 11.2219 75.8636 11.2336 75.8636C11.2415 75.8636 11.2493 75.8636 11.2571 75.8597L11.9485 75.8011C11.9719 75.7972 11.9836 75.7816 12.0032 75.7698C12.0266 75.7581 12.054 75.7542 12.0696 75.7347C12.0891 75.7152 12.0891 75.6917 12.0969 75.6644C12.1047 75.6448 12.1204 75.6292 12.1204 75.6019V67.1996L13.6516 66.8675C13.6555 66.8675 13.6555 66.8636 13.6594 66.8597C13.6672 66.8558 13.6789 66.8597 13.6867 66.8558L15.5148 66.0941C15.5226 66.0902 15.5226 66.0824 15.5304 66.0785C15.5383 66.0746 15.55 66.0746 15.5578 66.0707L15.7726 65.9144V76.0084C15.7726 76.028 15.7882 76.0397 15.7922 76.0553C15.7961 76.0748 15.7883 76.0905 15.8 76.1061L16.2648 76.9225C16.2726 76.9342 16.2843 76.9303 16.2922 76.9381C16.3039 76.9537 16.3078 76.9772 16.3273 76.9889L17.3742 77.6881L17.9094 78.0787V78.2155L17.8156 78.149C17.8078 78.1451 17.8 78.149 17.7961 78.1451C17.7883 78.1412 17.7883 78.1334 17.7805 78.1295L17.2062 77.8912C17.1984 77.8873 17.1945 77.8951 17.1867 77.8912C17.1789 77.8873 17.175 77.8795 17.1711 77.8795L16.4953 77.7389C16.4914 77.7389 16.4836 77.7428 16.4797 77.7428C16.4758 77.7428 16.4719 77.735 16.468 77.735L15.7648 77.692C15.757 77.6881 15.7531 77.6998 15.7453 77.6998C15.7375 77.6998 15.7336 77.692 15.7297 77.6959L15.0266 77.7819C15.0227 77.7819 15.0188 77.7858 15.0148 77.7897C15.0109 77.7897 15.007 77.7858 15.0031 77.7858L14.3703 77.942C14.3625 77.9459 14.3586 77.9537 14.3547 77.9537C14.3469 77.9576 14.3391 77.9498 14.3352 77.9537L13.7727 78.2194C13.7649 78.2233 13.7649 78.235 13.757 78.2389C13.7492 78.2428 13.7414 78.2428 13.7336 78.2467L13.3274 78.5709C13.3156 78.5787 13.3195 78.5905 13.3078 78.6022C13.3 78.6139 13.2844 78.6139 13.2805 78.6217L13.0422 79.0162C13.0344 79.028 13.0422 79.0397 13.0344 79.0514C13.0305 79.0631 13.0149 79.0709 13.0149 79.0826L12.9445 79.4889C12.9445 79.4967 12.9484 79.5006 12.9484 79.5084C12.9484 79.5162 12.9406 79.5201 12.9406 79.524V93.6721C12.9406 93.6838 12.9524 93.6877 12.9524 93.6994C12.9524 93.7111 12.9445 93.7189 12.9484 93.7267L13.0617 94.1213C13.0656 94.1369 13.0813 94.1447 13.0852 94.1564C13.0891 94.1681 13.0852 94.176 13.093 94.1838L13.3899 94.5783C13.3977 94.5861 13.4094 94.5861 13.4172 94.59C13.425 94.6017 13.425 94.6134 13.4367 94.6213L13.886 94.9299C13.8938 94.9338 13.9016 94.9338 13.9094 94.9377C13.9133 94.9416 13.9172 94.9494 13.9211 94.9494L14.4992 95.1877C14.507 95.1916 14.5188 95.1916 14.5266 95.1955C14.5305 95.1955 14.5305 95.1994 14.5344 95.1994L15.1945 95.34C15.2063 95.3439 15.2141 95.3439 15.2219 95.3439H15.2297H15.2336L15.9367 95.383H15.9484H15.9641L16.6516 95.3244L16.6555 95.3205C16.6672 95.3205 16.6789 95.3166 16.6906 95.3166L17.3352 95.133C17.3391 95.133 17.3391 95.1252 17.343 95.1252C17.3508 95.1213 17.3586 95.1213 17.3664 95.1174L17.9172 94.8478C17.925 94.8439 17.925 94.8361 17.9289 94.8322C17.9367 94.8283 17.9445 94.8283 17.9523 94.8244L18.3742 94.4884C18.3859 94.4806 18.3859 94.465 18.3938 94.4533C18.4016 94.4455 18.4133 94.4494 18.4172 94.4416L18.6555 94.0744C18.6633 94.0627 18.6594 94.0509 18.6633 94.0392C18.6711 94.0236 18.6828 94.0158 18.6867 94.0002L18.757 93.5783C18.757 93.5705 18.7531 93.5666 18.7531 93.5627C18.7531 93.5548 18.7609 93.5509 18.7609 93.547V80.266L19.4758 79.9926C19.4875 79.9887 19.4914 79.9731 19.5031 79.9692C19.5266 79.9535 19.5422 79.9379 19.5617 79.9145C19.5774 79.8949 19.5852 79.8793 19.5891 79.852C19.593 79.8402 19.6047 79.8324 19.6047 79.8207L19.675 78.934C19.675 78.9301 19.6711 78.9301 19.6711 78.9262C19.6711 78.9223 19.675 78.9223 19.675 78.9184V74.5317L21.6438 74.0239L24.7922 75.1137L26.1555 75.7426C26.1672 75.7465 26.175 75.7465 26.1868 75.7504C26.1907 75.7504 26.1907 75.7582 26.1985 75.7582L28.0696 76.1644C28.0774 76.1644 28.0813 76.1644 28.0891 76.1684H28.093L33.4914 76.8129H33.4953L37.0226 77.1371H37.0421H37.05L41.0148 77.0082C41.0187 77.0082 41.0187 77.0043 41.0226 77.0043C41.0499 77.0004 41.0773 76.9965 41.1007 76.9848L43.6866 75.6332C43.7061 75.6214 43.71 75.6019 43.7257 75.5824C43.7374 75.5746 43.7491 75.5746 43.7569 75.5667L44.8546 73.9495C44.8585 73.9456 44.8546 73.9417 44.8585 73.9417C44.8624 73.9378 44.8663 73.9339 44.8702 73.93L45.9288 71.8362L47.5577 69.8362L49.7686 68.2737L51.9092 67.219L53.9522 66.6917C53.9561 66.6917 53.9561 66.6839 53.96 66.6839C53.9679 66.68 53.9796 66.68 53.9874 66.6761L55.7179 65.8596C55.7257 65.8557 55.7257 65.8479 55.7335 65.844C55.7413 65.8401 55.753 65.8401 55.7609 65.8323L57.0695 64.762C57.0812 64.7542 57.0812 64.7386 57.089 64.7268C57.0968 64.719 57.1085 64.7229 57.1124 64.7151L57.8976 63.4924C57.9054 63.4807 57.9015 63.469 57.9054 63.4612C57.9132 63.4456 57.9249 63.4377 57.9288 63.4221L58.1671 62.1448C58.1671 62.137 58.1632 62.1331 58.1632 62.1253C58.1632 62.1175 58.171 62.1136 58.171 62.1058L58.1632 52.6292L59.5265 52.9143C59.5382 52.9182 59.546 52.9182 59.5539 52.9182H59.5617H59.5656L61.7883 53.0432H61.8H61.8117L62.2766 53.0159V62.1956C62.2766 62.2073 62.2883 62.2112 62.2883 62.2229C62.2922 62.2346 62.2805 62.2425 62.2844 62.2503L62.6476 63.5433C62.6516 63.5589 62.6672 63.5667 62.675 63.5823C62.6789 63.594 62.675 63.6019 62.6828 63.6097L63.6125 64.7933C63.6203 64.8011 63.6281 64.7972 63.6359 64.805C63.6437 64.8128 63.6437 64.8245 63.6555 64.8323L65.0774 65.844C65.0852 65.8518 65.0969 65.8479 65.1008 65.8518C65.1086 65.8557 65.1086 65.8636 65.1164 65.8675L66.9445 66.6253C66.9523 66.6292 66.9641 66.6292 66.9719 66.6331C66.9758 66.6331 66.9758 66.637 66.9797 66.637L69.0891 67.0862C69.1008 67.0901 69.1086 67.0901 69.1164 67.0901H69.1242H69.1281L71.3664 67.2151H71.3782H71.3977L73.6204 67.0042C73.6243 67.0042 73.6243 67.0003 73.6243 67.0003C73.636 67.0003 73.6438 67.0003 73.6516 66.9964L75.7063 66.4456C75.7102 66.4456 75.7102 66.4378 75.7141 66.4378C75.722 66.4339 75.7337 66.4339 75.7415 66.43L77.472 65.6018C77.4798 65.5979 77.4798 65.5901 77.4876 65.5862C77.4954 65.5823 77.5072 65.5823 77.5111 65.5784L78.8197 64.5237C78.8314 64.5159 78.8314 64.5003 78.8392 64.4924C78.847 64.4846 78.8587 64.4885 78.8626 64.4807L79.6634 63.2698C79.6712 63.2581 79.6673 63.2464 79.6712 63.2347C79.679 63.2191 79.6908 63.2112 79.6947 63.1956L79.9056 61.887C79.9056 61.8792 79.9017 61.8753 79.9017 61.8714C79.9017 61.8636 79.9095 61.8597 79.9095 61.8558L79.9056 47.7148C79.9056 47.703 79.8939 47.6991 79.8939 47.6874C79.8939 47.6796 79.9017 47.6718 79.8978 47.6601L79.898 47.66ZM70.3433 47.7498C70.3433 47.742 70.3394 47.7381 70.3394 47.7303C70.3394 47.7225 70.3472 47.7186 70.3472 47.7147V46.7186L70.4058 46.703L71.0113 46.6366L71.6167 46.6756L72.2144 46.8124L72.7222 46.9959L73.0738 47.2694L73.3042 47.5624L73.4019 47.8592L73.3472 48.1327L73.1597 48.4256L72.8082 48.7108L72.3589 48.9178L71.8003 49.0624L71.1792 49.1288L70.5542 49.0897L70.1285 48.9999L70.3433 47.7498ZM70.441 49.5975C70.4488 49.6015 70.4566 49.6015 70.4644 49.6015H70.4683L71.1714 49.66H71.187H71.2066L71.9097 49.5897C71.9136 49.5897 71.9136 49.5858 71.9136 49.5858C71.9253 49.5858 71.9331 49.5858 71.9449 49.5819L72.5933 49.3983C72.5972 49.3983 72.5972 49.3944 72.6011 49.3905C72.6089 49.3866 72.6167 49.3905 72.6245 49.3866L73.1597 49.1327C73.1675 49.1288 73.1675 49.121 73.1753 49.1171C73.1831 49.1132 73.191 49.1132 73.1988 49.1093L73.6206 48.7694C73.6324 48.7616 73.6285 48.7499 73.6363 48.7382C73.6441 48.7304 73.6558 48.7343 73.6597 48.7265L73.9136 48.3632C73.9214 48.3515 73.9175 48.3397 73.9214 48.328C73.9292 48.3124 73.9449 48.3007 73.9449 48.2851L74.0152 47.8632C74.0191 47.8475 74.0074 47.8358 74.0035 47.8163C74.0035 47.8007 74.0152 47.785 74.0074 47.7694L73.8785 47.3632C73.8745 47.3515 73.8589 47.3475 73.855 47.3358C73.8472 47.3241 73.8511 47.3124 73.8433 47.3007L73.562 46.9374C73.5542 46.9296 73.5425 46.9296 73.5386 46.9218C73.5308 46.914 73.5308 46.9022 73.523 46.8983L73.0738 46.5741C73.066 46.5663 73.0542 46.5702 73.0464 46.5663C73.0386 46.5624 73.0347 46.5507 73.0269 46.5468L72.4371 46.3202C72.4332 46.3163 72.4253 46.3241 72.4214 46.3202C72.4175 46.3202 72.4136 46.3124 72.4097 46.3124L71.7495 46.1601C71.7417 46.1561 71.7378 46.164 71.73 46.164C71.7222 46.164 71.7222 46.1561 71.7144 46.1561L71.0113 46.1132C71.0035 46.1093 70.9996 46.121 70.9917 46.1171C70.9878 46.1171 70.9839 46.1132 70.9761 46.1132L70.3394 46.1757V43.1601L70.8081 43.1093L73.0073 43.2499L75.0816 43.6913L76.8745 44.4374L78.2691 45.4062L79.1519 46.5312L79.4956 47.7304L79.3003 48.9374L78.5386 50.0976L77.273 51.1171L75.5777 51.9296L73.5582 52.4413L71.3668 52.6483L69.152 52.5233L67.0778 52.0819L66.8317 51.9804L67.902 51.4686C67.9098 51.4647 67.9098 51.4569 67.9176 51.453C67.9254 51.4491 67.9371 51.4491 67.941 51.4452L69.234 50.3905C69.2458 50.3827 69.2419 50.3671 69.2497 50.3592C69.2575 50.3514 69.2692 50.3553 69.2731 50.3475L69.8551 49.4803L70.441 49.5975ZM59.753 33.5895C59.753 33.5817 59.749 33.5778 59.749 33.5739C59.749 33.5661 59.7569 33.5622 59.7569 33.5583V32.9489L59.8037 32.9099L60.2608 32.6872L60.8311 32.5309L61.4365 32.4919L62.0655 32.5192L62.6514 32.6403L63.1319 32.8473L63.4991 33.1013L63.7373 33.3981L63.8272 33.695L63.7725 33.988L63.5889 34.277L63.2491 34.5427L62.7803 34.777L62.2178 34.9216L61.5967 34.9763L60.9834 34.9372L60.4209 34.82L59.9131 34.6091L59.6241 34.3981L59.753 33.5895ZM59.4834 34.9801L59.5576 35.0309C59.5655 35.0348 59.5733 35.0348 59.5772 35.0387C59.5811 35.0426 59.585 35.0505 59.5889 35.0505L60.1631 35.3044C60.1748 35.3083 60.1826 35.3083 60.1944 35.3122C60.1983 35.3122 60.1983 35.3161 60.2022 35.3161L60.878 35.4567C60.8897 35.4606 60.8975 35.4606 60.9092 35.4606H60.9131L61.6162 35.488H61.6241H61.6397L62.3428 35.4294H62.3467C62.3584 35.4294 62.3701 35.4255 62.3819 35.4255L62.9991 35.2575C63.003 35.2575 63.003 35.2536 63.0069 35.2497C63.0147 35.2458 63.0225 35.2458 63.0264 35.2458L63.5889 34.9919C63.5967 34.988 63.6006 34.9762 63.6045 34.9723C63.6162 34.9645 63.6241 34.9684 63.6319 34.9606L64.0381 34.6247C64.0498 34.6169 64.0498 34.6012 64.0576 34.5895C64.0655 34.5817 64.0772 34.5856 64.0811 34.5778L64.335 34.1833C64.3428 34.1715 64.3389 34.1598 64.3428 34.152C64.3506 34.1364 64.3623 34.1286 64.3662 34.113L64.4366 33.7184C64.4405 33.7028 64.4287 33.6911 64.4248 33.6715C64.4248 33.6559 64.4326 33.6442 64.4287 33.6286L64.3155 33.2223C64.3116 33.2106 64.2959 33.2028 64.292 33.1911C64.2842 33.1794 64.2881 33.1637 64.2803 33.152L63.9834 32.7731C63.9756 32.7614 63.9639 32.7653 63.9561 32.7575C63.9483 32.7497 63.9483 32.7379 63.9366 32.7301L63.4717 32.4215C63.4639 32.4176 63.46 32.4215 63.4522 32.4176C63.4444 32.4137 63.4444 32.4059 63.4366 32.402L62.8584 32.1481C62.8506 32.1442 62.8428 32.152 62.8389 32.1481C62.8311 32.1442 62.8272 32.1364 62.8233 32.1364L62.1787 31.9958C62.1709 31.9958 62.167 31.9997 62.1592 31.9997C62.1514 31.9997 62.1475 31.9919 62.1397 31.9919L61.4209 31.9645C61.4131 31.9645 61.4131 31.9684 61.4053 31.9723C61.4014 31.9723 61.3975 31.9684 61.3897 31.9684L60.7022 32.0387C60.6983 32.0387 60.6944 32.0465 60.6905 32.0465C60.6866 32.0465 60.6827 32.0426 60.6748 32.0426L60.0303 32.195C60.0225 32.1989 60.0186 32.2067 60.0108 32.2067C60.003 32.2106 59.9952 32.2028 59.9912 32.2067L59.7412 32.3239V29.0973L61.2178 28.9606L63.4406 29.0699L65.4992 29.527L67.3038 30.2574L68.6828 31.2379L69.5812 32.3785L69.9249 33.5621L69.714 34.7691L68.9523 35.9293L67.6984 36.9371L65.9953 37.7496L63.9758 38.2887L61.7844 38.4957L59.5852 38.3707L57.511 37.9293L56.7063 37.6012L57.3235 37.2926C57.3313 37.2887 57.3313 37.2809 57.3352 37.2769C57.343 37.273 57.3508 37.273 57.3547 37.2691L58.6633 36.23C58.675 36.2222 58.675 36.2066 58.6829 36.1949C58.6907 36.1871 58.7024 36.191 58.7063 36.1832L59.4834 34.9801ZM59.3545 28.9137V33.5387L59.2022 34.4489V34.4528L59.1748 34.6208L59.1397 34.7692L58.3897 35.9333L57.1241 36.9411L56.1319 37.4372L55.4249 37.7497L53.4015 38.2927L52.8819 38.3474L51.2257 38.4997L49.0109 38.3747L48.7726 38.32L46.9523 37.9294L45.8546 37.4724L45.8507 37.4763L45.1437 37.1911L43.7648 36.2224L42.8664 35.0818L42.7375 34.613L42.6671 34.3591V34.3552L42.5226 33.8474V24.6599L43.8898 24.5115C43.8937 24.5115 43.8937 24.5075 43.8937 24.5075C43.9015 24.5075 43.9093 24.5075 43.9172 24.5036L45.9719 23.9841C45.9758 23.9841 45.9797 23.9763 45.9836 23.9763C45.9953 23.9724 46.0031 23.9724 46.0109 23.9685L46.1984 23.8786L46.8195 24.1286C46.8273 24.1325 46.8351 24.1325 46.843 24.1325C46.8469 24.1325 46.8469 24.1365 46.8508 24.1365L48.9485 24.6013C48.9602 24.6052 48.968 24.6052 48.9758 24.6052H48.9836H48.9875L51.2258 24.7458H51.2375H51.2571L53.4641 24.5075C53.468 24.5075 53.468 24.5036 53.468 24.5036C53.4758 24.5036 53.4836 24.5036 53.4914 24.4997L55.5461 23.9802C55.55 23.9802 55.5539 23.9724 55.5578 23.9724C55.5657 23.9685 55.5774 23.9685 55.5852 23.9646L57.3274 23.1365C57.3352 23.1325 57.3352 23.1247 57.343 23.1208C57.3508 23.1169 57.3625 23.1169 57.3664 23.113L58.675 22.0583C58.6868 22.0505 58.6868 22.0349 58.6946 22.0271C58.7024 22.0193 58.7141 22.0232 58.718 22.0153L59.3625 21.0271L59.3545 28.9137ZM52.7022 38.7653V43.3747L51.3116 43.074C51.3038 43.074 51.2999 43.0779 51.296 43.0779C51.2882 43.0779 51.2882 43.0701 51.2804 43.0701L49.0577 42.9412H49.0459C49.042 42.9412 49.042 42.9451 49.042 42.9451C49.0381 42.9451 49.0381 42.9412 49.0381 42.9412L48.9249 42.9451V38.7615L48.9366 38.7654C48.9483 38.7693 48.9561 38.7693 48.9678 38.7693H48.9756H48.9834L51.2217 38.8943H51.2335H51.253L52.7022 38.7653ZM48.921 47.9567C48.921 47.9489 48.9288 47.945 48.9288 47.9411V46.902L49.2687 46.8747L49.8859 46.9137L50.4523 47.0309L50.9523 47.2419L51.3195 47.4958L51.5538 47.7927L51.632 48.0778L51.589 48.3708L51.3937 48.6442L51.0499 48.9372L50.6007 49.156L50.0343 49.2888L49.4132 49.3708L48.8038 49.3317L48.6906 49.3083C48.6945 49.3005 48.7023 49.2927 48.7062 49.2849L48.9328 47.9763C48.9249 47.9684 48.9171 47.9645 48.921 47.9567L48.921 47.9567ZM44.6749 52.1169L44.6046 52.1482L42.5773 52.6912L40.6984 52.8552C40.6945 52.8552 40.6945 52.8591 40.6945 52.8591H40.6906L40.3976 52.8982L38.2101 52.7732C38.2062 52.7732 38.2062 52.7771 38.2023 52.7771C38.1984 52.7771 38.1984 52.7732 38.1945 52.7732H38.1867L36.1203 52.3318L34.9289 51.8201H34.925L34.9211 51.8162L34.3273 51.5857L32.9328 50.5896L32.0344 49.4763L31.9055 49.0154L31.8625 48.8474V48.8435V48.8396L31.6984 48.2497V39.07L33.0656 38.9216C33.0695 38.9216 33.0695 38.9177 33.0695 38.9177C33.0774 38.9177 33.0852 38.9177 33.093 38.9138L35.1321 38.3943C35.136 38.3943 35.136 38.3904 35.1399 38.3864C35.1477 38.3825 35.1594 38.3825 35.1672 38.3786L35.3547 38.2888L35.9758 38.5388C35.9836 38.5427 35.9915 38.5427 35.9993 38.5427C36.0032 38.5427 36.0032 38.5466 36.0071 38.5466L38.1165 38.9958C38.1282 38.9997 38.136 38.9997 38.1438 38.9997H38.1516H38.1555L40.3782 39.1247H40.39H40.4095L42.6165 38.9138L42.6204 38.9099C42.6282 38.9099 42.6399 38.9099 42.6477 38.906L44.7024 38.3864C44.7063 38.3864 44.7103 38.3786 44.7142 38.3786C44.7259 38.3747 44.7337 38.3747 44.7415 38.3708L45.7688 37.8747L46.7961 38.3044C46.8039 38.3083 46.8156 38.3083 46.8235 38.3122C46.8274 38.3122 46.8274 38.3161 46.8313 38.3161L48.5149 38.6755V47.9216L48.3 49.1755L48.1946 49.3357V49.3435C48.1906 49.3474 48.1906 49.3474 48.1867 49.3474L48.1203 49.4685L47.5539 50.32L46.2883 51.3395L44.6749 52.1169ZM45.2257 52.7185L47.3351 53.1677C47.3468 53.1716 47.3546 53.1716 47.3624 53.1716H47.3703H47.3742L49.6125 53.2966H49.6242H49.6437L50.7648 53.1912L49.5773 53.7771C49.5734 53.781 49.5695 53.7888 49.5656 53.7888C49.5617 53.7927 49.5539 53.7888 49.55 53.7927L47.3 55.3669C47.2922 55.3747 47.2922 55.3865 47.2843 55.3904C47.2765 55.3982 47.2648 55.3943 47.2609 55.4021L45.6007 57.4255C45.5968 57.4333 45.5968 57.4411 45.5929 57.445C45.589 57.4528 45.5773 57.4528 45.5734 57.4606L44.507 59.5622L43.4484 61.1364L40.9406 62.445L40.9132 62.4489L40.9015 62.4177V53.238L42.6163 53.0857L42.6202 53.0818C42.6319 53.0818 42.6397 53.0818 42.6515 53.0778L44.7062 52.5271C44.7101 52.5271 44.7101 52.5232 44.714 52.5193C44.7218 52.5153 44.7257 52.5193 44.7335 52.5153L44.753 52.5075L45.1788 52.695C45.1905 52.6989 45.1983 52.6989 45.2101 52.7028C45.2218 52.7146 45.2218 52.7185 45.2257 52.7185L45.2257 52.7185ZM38.3859 62.1326C38.3859 62.1248 38.3937 62.1209 38.3937 62.117V53.1873L40.3898 53.3006H40.4015C40.4093 53.3006 40.4211 53.3006 40.4289 53.2967L40.5109 53.2849V62.449C40.5109 62.4569 40.5187 62.4608 40.5187 62.4686L38.3234 62.535L38.3937 62.1444C38.3937 62.1444 38.3859 62.1404 38.3859 62.1326L38.3859 62.1326ZM28.0229 48.2106C28.0229 48.2028 28.0307 48.1989 28.0307 48.195V47.2145L28.3198 47.0895L28.8901 46.9294L29.5073 46.8747L30.1205 46.9137L30.683 47.0348L31.1948 47.2458L31.3002 47.3161V48.277C31.3002 48.2887 31.3081 48.2926 31.312 48.3004C31.312 48.3122 31.3041 48.32 31.3081 48.3278L31.4409 48.82L31.2963 48.9372L30.8432 49.1598L30.2768 49.2926L29.6557 49.3747L29.0502 49.3356L28.4604 49.2028L27.9682 48.9997L27.9096 48.9606L28.0307 48.2262C28.0268 48.2184 28.0229 48.2145 28.0229 48.2106V48.2106ZM29.3002 43.3434L31.3002 43.4606V46.7106L30.9369 46.5504C30.9291 46.5465 30.9213 46.5543 30.9135 46.5504C30.9057 46.5465 30.9018 46.5387 30.8939 46.5387L30.2182 46.3981C30.2104 46.3981 30.2064 46.402 30.2025 46.402C30.1947 46.402 30.1908 46.3942 30.183 46.3942L29.4799 46.3668C29.476 46.3668 29.4721 46.3708 29.4682 46.3708C29.4643 46.3708 29.4604 46.3668 29.4565 46.3668L28.7533 46.4215C28.7455 46.4215 28.7416 46.4293 28.7377 46.4293C28.7299 46.4293 28.7221 46.4254 28.7182 46.4254L28.101 46.5934C28.0932 46.5973 28.0932 46.6012 28.0893 46.6051C28.0854 46.609 28.0775 46.6012 28.0736 46.6051L28.0307 46.6247V43.4685L29.3002 43.3434ZM28.0307 43.0622V38.8903L28.5502 38.9957C28.5619 38.9957 28.5698 38.9996 28.5776 38.9996H28.5815H28.5893L30.812 39.1246H30.8237H30.8354L31.2964 39.0973V43.0621L29.3003 42.9488H29.2885C29.2846 42.9488 29.2807 42.9527 29.2768 42.9527C29.2729 42.9527 29.269 42.9488 29.2651 42.9488L28.0307 43.0622ZM28.2299 49.6989C28.2377 49.7028 28.2494 49.7028 28.2573 49.7067C28.2612 49.7067 28.2651 49.7145 28.269 49.7145L28.9135 49.8551C28.9252 49.859 28.933 49.859 28.9448 49.859H28.9487L29.6674 49.8864H29.6752H29.6948L30.3823 49.816C30.3862 49.816 30.3862 49.8121 30.3862 49.8121C30.394 49.8121 30.4018 49.8121 30.4096 49.8082L31.0541 49.6559C31.058 49.6559 31.0619 49.6481 31.0658 49.6481C31.0776 49.6442 31.0854 49.6442 31.0971 49.6403L31.5971 49.3981L31.6596 49.6285C31.6635 49.6442 31.6791 49.6559 31.6869 49.6676C31.6948 49.6793 31.6908 49.691 31.6987 49.6989L32.6401 50.8669C32.6479 50.8747 32.6557 50.8708 32.6635 50.8786C32.6713 50.8864 32.6713 50.8981 32.6791 50.9059L34.1127 51.9332C34.1205 51.941 34.1323 51.9371 34.1401 51.941C34.1479 51.9449 34.1479 51.9527 34.1557 51.9567L34.3432 52.027L34.0737 52.1559L32.0542 52.6949L29.8628 52.902L27.648 52.777L25.5738 52.3356L25.1558 52.152L25.5972 51.9488C25.605 51.9449 25.605 51.9371 25.6128 51.9293C25.6207 51.9254 25.6324 51.9254 25.6402 51.9215L26.9605 50.8512C26.9722 50.8434 26.9722 50.8278 26.98 50.816C26.9878 50.8082 26.9995 50.8121 27.0035 50.8043L27.7886 49.5816C27.7964 49.5699 27.7925 49.5543 27.7964 49.5426C27.8003 49.5308 27.8081 49.5269 27.812 49.5152L28.2299 49.6989ZM25.4291 52.7067C25.4408 52.7106 25.4486 52.7106 25.4604 52.7145C25.4643 52.7145 25.4643 52.7184 25.4682 52.7223L27.5776 53.1715C27.5893 53.1754 27.5971 53.1754 27.6049 53.1754H27.6127H27.6166L29.8549 53.3004H29.8667H29.8862L32.1089 53.0895C32.1128 53.0895 32.1128 53.0856 32.1128 53.0856C32.1245 53.0856 32.1323 53.0856 32.1401 53.0817L34.1948 52.5309C34.1987 52.5309 34.1987 52.5231 34.2027 52.5231C34.2105 52.5192 34.2222 52.5192 34.23 52.5153L34.8511 52.2145L35.9761 52.6989C35.9839 52.7028 35.9956 52.7028 36.0034 52.7067C36.0073 52.7067 36.0073 52.7106 36.0112 52.7145L37.9917 53.1364V62.0895L37.9097 62.5465L37.0425 62.5816L33.5269 62.2613L28.1402 61.6012L26.3043 61.2145L24.9488 60.5777C24.9449 60.5738 24.941 60.5777 24.9371 60.5777C24.9332 60.5777 24.9332 60.5699 24.9293 60.5699L21.7223 59.4605C21.7028 59.4527 21.6832 59.4644 21.6637 59.4644C21.6442 59.4644 21.6246 59.4527 21.6051 59.4566L21.1559 59.5816V53.3628L21.7457 53.3081L21.7496 53.3042C21.7574 53.3042 21.7692 53.3042 21.777 53.3003L23.8434 52.7652C23.8473 52.7652 23.8473 52.7573 23.8551 52.7573C23.8629 52.7534 23.8746 52.7534 23.8824 52.7495L24.6715 52.3667L25.4291 52.7067ZM39.3431 33.8087C39.3431 33.8008 39.3509 33.7969 39.3509 33.793V32.7969L39.4095 32.7813L40.0306 32.7149L40.6556 32.754L41.2259 32.8868L41.7259 33.0704L42.097 33.3438L42.1126 33.3633V33.8751C42.1126 33.8868 42.1244 33.8907 42.1244 33.9024C42.1283 33.9141 42.1165 33.9219 42.1204 33.9298L42.2494 34.3712L42.1634 34.5001L41.8431 34.7852L41.3666 34.9923L40.808 35.1368L40.1869 35.2032L39.5736 35.1641L39.1439 35.0743L39.347 33.8165C39.347 33.8204 39.3431 33.8126 39.3431 33.8087V33.8087ZM39.8314 29.1837L42.0462 29.3243L42.1126 29.3399V32.6719L42.0774 32.6485C42.0696 32.6407 42.0579 32.6446 42.054 32.6407C42.0462 32.6367 42.0462 32.625 42.0345 32.6211L41.472 32.3946C41.4681 32.3907 41.4603 32.3985 41.4564 32.3946C41.4485 32.3907 41.4485 32.3867 41.4407 32.3828L40.7649 32.2305C40.7571 32.2305 40.7532 32.2344 40.7454 32.2344C40.7376 32.2344 40.7376 32.2266 40.7298 32.2266L40.0267 32.1836C40.0189 32.1797 40.015 32.1914 40.011 32.1875C40.0032 32.1875 39.9993 32.1836 39.9954 32.1836L39.3431 32.25V29.2305L39.8314 29.1837ZM39.3509 28.8321V24.6016L39.3783 24.6094C39.3861 24.6133 39.3978 24.6133 39.4056 24.6133H39.4173H39.4212L41.6439 24.7539H41.6557H41.6752L42.1127 24.7071V28.9337C42.1088 28.9337 42.1049 28.9376 42.101 28.9376C42.0932 28.9376 42.0893 28.9298 42.0853 28.9298L39.8353 28.7891H39.8236C39.8197 28.7891 39.8158 28.793 39.8119 28.793C39.808 28.793 39.8041 28.7891 39.8002 28.7891L39.3509 28.8321ZM39.4603 35.6759C39.4681 35.6798 39.4759 35.6798 39.4837 35.6798H39.4876L40.1908 35.7384H40.2064H40.2259L40.9291 35.6681C40.933 35.6681 40.933 35.6642 40.933 35.6642C40.9447 35.6642 40.9525 35.6642 40.9642 35.6603L41.6087 35.4767C41.6126 35.4767 41.6126 35.4728 41.6166 35.4689C41.6244 35.465 41.6322 35.465 41.6361 35.465L42.1869 35.2111C42.1947 35.2071 42.1947 35.1993 42.2025 35.1915C42.2103 35.1876 42.222 35.1876 42.2298 35.1798L42.4291 35.0157L42.4876 35.2189C42.4916 35.2345 42.5072 35.2423 42.515 35.2579C42.5189 35.2696 42.515 35.2814 42.5228 35.2892L43.4642 36.4845C43.472 36.4923 43.4837 36.4884 43.4877 36.4962C43.4955 36.504 43.4955 36.5157 43.5072 36.5235L44.9291 37.5196C44.9369 37.5274 44.9486 37.5235 44.9564 37.5274C44.9642 37.5313 44.9642 37.5392 44.972 37.5392L45.2845 37.6642L44.601 37.9923L42.5776 38.504L40.3979 38.711L38.1987 38.586L36.1206 38.1446L35.8549 38.0392L36.9174 37.5313C36.9253 37.5274 36.9253 37.5196 36.9331 37.5157C36.9409 37.5118 36.9526 37.5118 36.9565 37.5079L38.2768 36.4532C38.2885 36.4454 38.2885 36.4298 38.2963 36.4181C38.3041 36.4102 38.3159 36.4142 38.3198 36.4063L38.8784 35.5391L39.4603 35.6759ZM50.1753 19.4299C50.1753 19.4221 50.1714 19.4182 50.1714 19.4104C50.1714 19.4026 50.1792 19.3986 50.1792 19.3947V18.3987L50.2378 18.383L50.8589 18.3166L51.48 18.3557L52.0425 18.4885L52.5542 18.6838L52.9214 18.9494L53.1597 19.2463L53.2339 19.5276L53.1792 19.8205L52.9917 20.1018L52.6558 20.3908L52.1909 20.594L51.6284 20.7424L51.0151 20.8205L50.4097 20.7815L49.9644 20.6799L50.1753 19.4299ZM50.2651 21.3049C50.2808 21.3088 50.2925 21.3088 50.3042 21.3127H50.3081L51.0269 21.3401H51.0347H51.0542L51.7417 21.2697C51.7456 21.2697 51.7456 21.2658 51.7456 21.2658C51.7534 21.2619 51.7612 21.2619 51.7691 21.2619L52.4175 21.094C52.4214 21.094 52.4214 21.0901 52.4253 21.0861C52.4331 21.0822 52.4448 21.0822 52.4487 21.0783L52.9995 20.8244C53.0073 20.8205 53.0073 20.8127 53.0112 20.8088C53.0191 20.8049 53.0308 20.8049 53.0347 20.801L53.4566 20.4768C53.4722 20.465 53.4722 20.4494 53.48 20.4377C53.4878 20.4299 53.4995 20.4299 53.5034 20.4221L53.7417 20.0275C53.7495 20.0158 53.7417 20.008 53.7456 19.9963C53.7534 19.9807 53.7652 19.9729 53.7652 19.9611L53.8355 19.5549C53.8394 19.5393 53.8277 19.5275 53.8237 19.508C53.8237 19.4924 53.8355 19.4768 53.8277 19.4611L53.7027 19.0549C53.6987 19.0432 53.687 19.0393 53.6792 19.0275C53.6753 19.0158 53.6792 19.0041 53.6714 18.9963L53.3902 18.6174C53.3823 18.6057 53.3706 18.6096 53.3628 18.5979C53.355 18.59 53.355 18.5783 53.3472 18.5744L52.898 18.2502C52.8902 18.2463 52.8823 18.2463 52.8745 18.2424C52.8667 18.2385 52.8628 18.2268 52.855 18.2229L52.2808 17.9963C52.273 17.9924 52.2691 18.0002 52.2612 17.9963C52.2534 17.9963 52.2534 17.9885 52.2456 17.9846L51.5698 17.844C51.5659 17.844 51.562 17.8479 51.5542 17.8479C51.5503 17.8479 51.5464 17.8401 51.5425 17.8401L50.8394 17.7854C50.8316 17.7815 50.8237 17.7932 50.8198 17.7932C50.812 17.7932 50.8081 17.7854 50.8003 17.7893L50.1675 17.8635V14.8362L50.648 14.7971L52.8355 14.9221L54.9097 15.3635L56.7027 16.1057L58.1129 17.0901L58.9957 18.1995L59.3394 19.3987L59.1285 20.6214L58.3824 21.7698L57.1168 22.7893L55.4137 23.6018L53.3903 24.1135L51.2106 24.3479L48.9997 24.2073L46.9333 23.7503L46.6677 23.6448L47.7302 23.137C47.738 23.1331 47.738 23.1253 47.7458 23.1213C47.7536 23.1174 47.7653 23.1174 47.7692 23.1135L49.0778 22.0588C49.0896 22.051 49.0896 22.0354 49.0974 22.0276C49.1052 22.0198 49.1169 22.0237 49.1208 22.0159L49.6911 21.1526L50.2651 21.3049ZM33.1521 4.3639L33.8982 3.2037L35.1755 2.1842L36.8552 1.38732L38.8864 0.848257L41.0622 0.641227L43.2849 0.750607L45.3591 1.20764L47.1521 1.95373L48.5427 2.92248L49.4295 4.06698L49.7732 5.26228L49.5623 6.46928L48.8162 7.61768L47.5506 8.64888L45.8436 9.44575L43.828 9.96919L41.6483 10.1762L39.4491 10.0512L37.3749 9.60981L35.5819 8.86372L34.1717 7.89497L33.2889 6.76997L32.9608 5.57467L33.1521 4.3639ZM32.9529 19.1409V6.9929L33.8748 8.1687C33.8826 8.17651 33.8943 8.1726 33.8982 8.18042C33.9061 8.18823 33.9061 8.20385 33.9178 8.21167L35.367 9.20776C35.3748 9.21166 35.3826 9.21166 35.3904 9.21557C35.3943 9.21947 35.3982 9.22729 35.4021 9.22729L37.2302 9.98901C37.238 9.99292 37.2498 9.99291 37.2576 9.99682C37.2615 9.99682 37.2615 10.0007 37.2654 10.0007L39.3748 10.4499C39.3865 10.4539 39.3943 10.4539 39.4021 10.4539H39.4099H39.4139L41.6366 10.5789H41.6483H41.6678L43.8748 10.3679C43.8787 10.3679 43.8787 10.364 43.8787 10.364C43.8904 10.364 43.8982 10.364 43.9061 10.3601L45.9608 9.82494C45.9647 9.82494 45.9647 9.82103 45.9686 9.81713C45.9764 9.81322 45.9881 9.81322 45.9959 9.80931L47.742 9.00072C47.7498 8.99682 47.7498 8.98901 47.7576 8.9851C47.7654 8.98119 47.7772 8.98119 47.785 8.97338L49.0936 7.90698C49.1053 7.89917 49.1053 7.88354 49.1131 7.87573C49.1209 7.86792 49.1326 7.87182 49.1365 7.86401L49.7811 6.87573V19.3877L49.5662 20.6338L49.5233 20.6963C49.5194 20.7002 49.5233 20.7041 49.5194 20.7041C49.5155 20.7081 49.5155 20.7081 49.5116 20.7081V20.712C49.5116 20.712 49.5076 20.712 49.5076 20.7159L49.4412 20.837L48.8162 21.7901L47.5506 22.8096L46.1014 23.501L46.0936 23.5049L45.8475 23.6221L43.8241 24.1338L42.2929 24.3018L41.6445 24.3721L39.4453 24.2315L39.1953 24.1768L37.3711 23.7744L36.2734 23.3447H36.2695L35.582 23.0322L34.1718 22.0596L33.289 20.9502L33.1601 20.4697L33.1562 20.4658V20.4619L33.0898 20.2353V20.2314V20.2275L32.9569 19.7197L32.9529 19.1409ZM32.5623 19.7581C32.5623 19.7659 32.5545 19.7737 32.5584 19.7815L32.6756 20.2307L32.6014 20.3518L32.2654 20.6136L31.785 20.8479L31.2303 20.9925L30.6287 21.0472L30.0193 21.0081L29.4295 20.8753L28.9256 20.6761L28.5506 20.4143L28.3357 20.1292L28.2459 19.8401L28.2889 19.5432L28.4725 19.2503L28.824 18.9846L29.2928 18.762L29.8514 18.6018L30.4451 18.5628L31.0896 18.5901L31.6521 18.7073L32.156 18.9182L32.531 19.1682L32.5545 19.1995V19.7229C32.5506 19.7386 32.5623 19.7464 32.5623 19.7581H32.5623ZM22.3243 18.7503L23.0704 17.6019L24.3477 16.5824L26.0547 15.7699L28.0625 15.2308L30.2617 15.0394L32.4609 15.1488L32.5507 15.1683V18.5238L32.5195 18.5004C32.5117 18.4965 32.5039 18.5004 32.5 18.4965C32.4921 18.4926 32.4921 18.4809 32.4843 18.4809L31.9101 18.2269C31.9023 18.223 31.8945 18.2309 31.8906 18.2269C31.8828 18.223 31.8789 18.2152 31.8711 18.2152L31.1953 18.0746C31.1875 18.0746 31.1836 18.0785 31.1796 18.0785C31.1718 18.0785 31.1679 18.0707 31.164 18.0707L30.4609 18.0434C30.457 18.0434 30.4531 18.0473 30.4492 18.0473C30.4453 18.0473 30.4414 18.0434 30.4375 18.0434L29.7343 18.102C29.7265 18.102 29.7226 18.1098 29.7187 18.1098C29.7109 18.1137 29.707 18.1059 29.6992 18.1059L29.0508 18.2738C29.0429 18.2777 29.039 18.2855 29.0351 18.2855C29.0273 18.2895 29.0195 18.2816 29.0156 18.2855L28.4648 18.5551C28.457 18.559 28.4531 18.5707 28.4453 18.5746C28.4375 18.5785 28.4258 18.5785 28.4218 18.5824L28.0273 18.9223C28.0195 18.9301 28.0195 18.9379 28.0156 18.9457C28.0078 18.9535 27.9961 18.9535 27.9922 18.9613L27.7265 19.3402C27.7187 19.352 27.7226 19.3676 27.7187 19.3793C27.7109 19.3949 27.6953 19.4027 27.6953 19.4223L27.625 19.8285C27.6211 19.8441 27.6328 19.8559 27.6367 19.8754C27.6367 19.891 27.6289 19.9027 27.6328 19.9184L27.7461 20.3246C27.75 20.3441 27.7656 20.352 27.7734 20.3676C27.7812 20.3793 27.7773 20.391 27.7851 20.3988L28.0937 20.7621C28.1015 20.7699 28.1093 20.766 28.1132 20.7738C28.1211 20.7816 28.1211 20.7934 28.1289 20.7973L28.5664 21.1059C28.5742 21.1098 28.582 21.1098 28.5898 21.1137C28.5976 21.1176 28.5976 21.1254 28.6015 21.1254L29.1757 21.3793C29.1875 21.3832 29.1953 21.3832 29.2031 21.3871C29.207 21.3871 29.2109 21.3949 29.2148 21.3949L29.8906 21.5355C29.9023 21.5355 29.9101 21.5394 29.9218 21.5394H29.9257L30.6289 21.5668H30.6367H30.6523L31.3554 21.5082C31.3554 21.5082 31.3593 21.5082 31.3593 21.5043C31.371 21.5043 31.3789 21.5043 31.3906 21.5004L32.0351 21.3324C32.039 21.3324 32.039 21.3285 32.0429 21.3246C32.0507 21.3207 32.0625 21.3207 32.0664 21.3168L32.6171 21.0629C32.625 21.059 32.6249 21.0512 32.6328 21.0473C32.6406 21.0434 32.6523 21.0433 32.6601 21.0394L32.8632 20.8754L32.9179 21.0746C32.9218 21.0941 32.9374 21.1019 32.9453 21.1176C32.9492 21.1293 32.9492 21.1371 32.9531 21.1488L33.8828 22.3168C33.8906 22.3246 33.9023 22.3207 33.9062 22.3285C33.914 22.3364 33.914 22.352 33.9257 22.3559L35.3749 23.3559C35.3827 23.3598 35.3906 23.3598 35.3945 23.3637L35.4062 23.3754L35.7187 23.516L35.0273 23.8324L33.0156 24.3715L30.8242 24.5785L28.625 24.4535L26.5469 24.0121L24.7578 23.2699L23.3789 22.3012L22.4804 21.1606L22.1367 19.9458L22.3243 18.7503ZM22.1251 34.0743V21.3473C22.129 21.359 22.1251 21.3668 22.1329 21.3746L23.0743 22.5699C23.0821 22.5777 23.0938 22.5738 23.0977 22.5817C23.1056 22.5895 23.1056 22.6012 23.1173 22.609L24.5392 23.6051C24.547 23.6129 24.5587 23.609 24.5665 23.6129C24.5704 23.6168 24.5743 23.6246 24.5782 23.6246L26.4063 24.3863C26.4142 24.3902 26.4259 24.3902 26.4337 24.3941C26.4376 24.3941 26.4376 24.3981 26.4415 24.3981L28.5509 24.8473C28.5626 24.8512 28.5704 24.8512 28.5782 24.8512H28.5861H28.59L30.8127 24.9762H30.8244H30.8439L33.0666 24.7652C33.0705 24.7652 33.0705 24.7613 33.0705 24.7613C33.0822 24.7613 33.09 24.7613 33.0979 24.7574L35.137 24.2066C35.1409 24.2066 35.1409 24.1988 35.1448 24.1988C35.1526 24.1949 35.1604 24.1988 35.1682 24.1949L36.1994 23.7223L37.2306 24.1285C37.2384 24.1324 37.2462 24.1324 37.2541 24.1324C37.258 24.1324 37.258 24.1363 37.2619 24.1363L38.9455 24.5074V29.0426L38.9494 32.4996V33.7769L38.7501 35.0035L38.6955 35.0777C38.6916 35.0816 38.6955 35.0895 38.6916 35.0934C38.6876 35.0973 38.6837 35.0973 38.6798 35.1012L38.6134 35.2184L38.0002 36.1715L36.7229 37.191L35.2775 37.8785C35.2775 37.8785 35.2736 37.8785 35.2736 37.8824L35.2697 37.8863L35.0158 38.0035L33.0158 38.5152L31.4806 38.6832L30.8283 38.7222L28.6252 38.5972L27.8752 38.4449L26.551 38.1558L25.1916 37.6012L24.758 37.4137L23.3791 36.4449L22.4807 35.316L22.1408 34.1051C22.1408 34.1012 22.1369 34.1012 22.133 34.0973L22.1251 34.0743ZM11.0041 33.1485L11.7658 31.9883L13.0314 30.9571L14.7384 30.1563L16.754 29.6329L18.9376 29.4219L21.1329 29.5469L21.7228 29.668V33.2774L21.7032 33.2501C21.6954 33.2384 21.6837 33.2423 21.6759 33.2345C21.6681 33.2267 21.6681 33.2149 21.6563 33.2071L21.1915 32.8985C21.1837 32.8946 21.1798 32.8985 21.172 32.8946C21.1681 32.8907 21.1642 32.8829 21.1603 32.8829L20.586 32.629C20.5782 32.6251 20.5704 32.6329 20.5665 32.629C20.5587 32.6251 20.5548 32.6173 20.547 32.6173L19.8712 32.4767C19.8673 32.4767 19.8634 32.4806 19.8595 32.4806C19.8556 32.4806 19.8517 32.4727 19.8478 32.4727L19.1446 32.4181C19.1368 32.4142 19.1329 32.4259 19.1251 32.4259C19.1173 32.4259 19.1134 32.4181 19.1056 32.422L18.4025 32.5079C18.3985 32.5079 18.3946 32.5157 18.3907 32.5157C18.3868 32.5157 18.3829 32.5118 18.3751 32.5118L17.7306 32.6798C17.7228 32.6837 17.7189 32.6915 17.715 32.6915C17.7071 32.6954 17.6993 32.6876 17.6954 32.6915L17.1446 32.961C17.1368 32.9649 17.1368 32.9727 17.129 32.9806C17.1212 32.9845 17.1134 32.9806 17.1056 32.9884L16.6954 33.3009C16.6837 33.3087 16.6876 33.3243 16.6759 33.3321C16.6681 33.3399 16.6525 33.3438 16.6485 33.3517L16.4103 33.7462C16.4025 33.7579 16.4103 33.7696 16.4025 33.7813C16.3985 33.7931 16.3829 33.8009 16.3829 33.8126L16.3126 34.2188C16.3087 34.2345 16.3204 34.2462 16.3243 34.2618C16.3243 34.2774 16.3126 34.2892 16.3204 34.3048L16.4337 34.711C16.4376 34.7267 16.4532 34.7384 16.461 34.7501C16.4689 34.7618 16.465 34.7735 16.4728 34.7813L16.7696 35.1485C16.7775 35.1563 16.7892 35.1524 16.7931 35.1602C16.8009 35.1681 16.8009 35.1798 16.8126 35.1876L17.2618 35.4962C17.2696 35.5001 17.2775 35.5001 17.2814 35.504C17.2853 35.5079 17.2892 35.5157 17.2931 35.5157L17.8556 35.7696C17.8673 35.7735 17.8751 35.7735 17.8868 35.7774C17.8907 35.7774 17.8946 35.7852 17.8986 35.7852L18.5743 35.9259C18.586 35.9259 18.5939 35.9298 18.6056 35.9298H18.6095L19.3126 35.9571H19.3204H19.34L20.0431 35.8868L20.047 35.8829C20.0548 35.8829 20.0626 35.8829 20.0704 35.879L20.7149 35.7267C20.7188 35.7267 20.7228 35.7188 20.7267 35.7188C20.7384 35.7149 20.7462 35.7149 20.7579 35.711L21.3087 35.4415C21.3126 35.4376 21.3165 35.4298 21.3204 35.4298C21.3282 35.4259 21.336 35.4259 21.3438 35.422L21.7657 35.0977C21.7814 35.086 21.7814 35.0704 21.7892 35.0587C21.797 35.0509 21.8087 35.0548 21.8126 35.0431L21.9337 34.8399L22.1095 35.4571C22.1134 35.4728 22.129 35.4806 22.1368 35.4962C22.1407 35.5079 22.1368 35.5157 22.1446 35.5274L23.086 36.711C23.0938 36.7189 23.1017 36.7149 23.1095 36.7228C23.1173 36.7306 23.1173 36.7423 23.129 36.7501L24.5509 37.7462C24.5587 37.7501 24.5665 37.7501 24.5743 37.754C24.5822 37.7579 24.5822 37.7657 24.5861 37.7657L24.6368 37.7892L23.7384 38.2228L21.7032 38.7618L19.5235 38.9688L17.3087 38.8438L15.2345 38.4024L13.4454 37.6602L12.0509 36.6602L11.1642 35.5469L10.8204 34.336L11.0041 33.1485ZM21.5201 34.1524L21.4654 34.4493L21.2818 34.7266L20.9303 35.0157L20.4928 35.2344L19.9263 35.3672L19.3013 35.4493L18.6763 35.4102L18.1099 35.2774L17.606 35.0782L17.2271 34.8126L17.0045 34.5313L16.9263 34.2344L16.981 33.9337L17.1646 33.6446L17.4888 33.3829L17.9693 33.1602L18.5279 33.0001L19.1294 32.9454L19.7388 32.9844L20.3287 33.1055L20.8404 33.3165L21.2037 33.5704L21.438 33.8673L21.5201 34.1524ZM10.8051 46.8164V35.7464C10.809 35.7581 10.8051 35.7659 10.8129 35.7738L11.7426 36.9418C11.7504 36.9496 11.7582 36.9457 11.766 36.9535C11.7738 36.9613 11.7738 36.973 11.7817 36.9808L13.2153 38.0081C13.2231 38.0159 13.2348 38.012 13.2426 38.0159C13.2504 38.0198 13.2504 38.0276 13.2543 38.0276L15.0824 38.7855C15.0902 38.7894 15.1019 38.7894 15.1098 38.7933C15.1137 38.7933 15.1137 38.7972 15.1176 38.7972L17.227 39.2464C17.2387 39.2503 17.2465 39.2503 17.2543 39.2503H17.2582H17.266L19.5043 39.3753H19.5161H19.5356L21.7426 39.1644L21.7465 39.1605C21.7543 39.1605 21.766 39.1605 21.7738 39.1566L23.8402 38.6058C23.8441 38.6058 23.848 38.598 23.852 38.598C23.8598 38.5941 23.8676 38.5941 23.8754 38.5901L25.102 37.9964L26.3989 38.5237C26.4067 38.5276 26.4184 38.5276 26.4262 38.5276C26.4301 38.5276 26.4301 38.5315 26.434 38.5315L27.6254 38.7933V48.1683L27.4887 48.9964L27.4458 49.18C27.4458 49.1839 27.4497 49.1878 27.4497 49.1917C27.4497 49.1956 27.4458 49.1956 27.4458 49.1995L27.4223 49.3909L26.6762 50.5471L25.3989 51.5783L24.5747 51.9611L24.5708 51.965L23.7153 52.3791L21.6841 52.9025L20.9263 52.9728L19.5083 53.1135L18.1724 53.0432H18.1685H18.1607L17.2896 52.9885L15.2154 52.5471L14.1802 52.1056H14.1763C14.1763 52.1056 14.1763 52.1017 14.1724 52.1017L14.1685 52.0978L13.4224 51.7971L12.0318 50.8283L11.1451 49.7033L11.0748 49.4103L11.0474 49.2853C11.0474 49.2853 11.0474 49.2814 11.0435 49.2814V49.2775C11.0435 49.2736 11.0396 49.2736 11.0396 49.2736V49.2658L10.7974 48.4806L10.8051 46.8164ZM20.7543 53.4062V59.6953L18.3715 60.3164V53.4648L19.5121 53.5234H19.5238H19.5433L20.7543 53.4062ZM10.4143 48.5624C10.4143 48.5741 10.4065 48.5819 10.4104 48.5937L10.6018 49.2069L10.2541 49.2929L9.62522 49.371L9.01976 49.3319L8.42601 49.1991L7.94162 49.0038L7.56271 48.7382L7.34005 48.4569L7.26193 48.1679L7.29318 47.8593L7.48459 47.5741L7.82443 47.3124L8.29318 47.0898L8.86349 46.9296L9.46505 46.8749L10.0783 46.914L10.3986 46.9765V48.5273C10.4025 48.5429 10.4143 48.5507 10.4143 48.5624L10.4143 48.5624ZM1.48849 46.7538L2.37521 45.6405L3.75801 44.6561L5.54711 43.9139L7.62131 43.4725L9.83611 43.3475L10.4025 43.4022V46.4334L10.3752 46.4256C10.3674 46.4256 10.3635 46.4295 10.3556 46.4295C10.3478 46.4295 10.3439 46.4217 10.3361 46.4217H10.2853L10.2306 46.3983C10.2228 46.3944 10.2111 46.4022 10.2033 46.4022C10.1955 46.3983 10.1877 46.3904 10.176 46.3904L9.6369 46.3592C9.63299 46.3592 9.63299 46.3631 9.63299 46.3631C9.62908 46.3631 9.62908 46.3592 9.62908 46.3592H9.45721C9.4533 46.3592 9.4533 46.3631 9.4533 46.3631C9.44939 46.3631 9.44939 46.3592 9.44939 46.3592L8.91033 46.3904C8.89861 46.3904 8.89471 46.4022 8.88299 46.4022C8.87518 46.4061 8.86346 46.3983 8.85565 46.3983L8.80487 46.4178H8.75408C8.74627 46.4178 8.74236 46.4256 8.73455 46.4256C8.72674 46.4256 8.71893 46.4178 8.71112 46.4217L8.45721 46.4803L8.21892 46.535C8.20721 46.5389 8.2033 46.5506 8.19158 46.5545C8.17986 46.5584 8.16814 46.5545 8.16033 46.5584L8.12517 46.5779L8.06658 46.5858C8.05486 46.5897 8.05096 46.5975 8.03924 46.6014C8.02752 46.6053 8.01971 46.5975 8.00799 46.6014L7.8244 46.6873L7.58612 46.8006C7.58221 46.8045 7.58221 46.8084 7.5783 46.8123C7.5744 46.8162 7.56658 46.8123 7.56268 46.8162L7.51971 46.8436L7.4533 46.8826C7.4494 46.8865 7.4494 46.8904 7.44549 46.8904C7.44159 46.8944 7.43768 46.8904 7.43768 46.8944L7.26971 47.0194L7.11346 47.1326C7.10174 47.1404 7.10174 47.1561 7.09393 47.1639C7.08612 47.1756 7.07049 47.1756 7.06268 47.1873L7.05487 47.199L7.02752 47.2186C7.0158 47.2264 7.01971 47.2381 7.0119 47.2459C7.00408 47.2537 6.99237 47.2537 6.98455 47.2654L6.8908 47.4022L6.78142 47.5389C6.7697 47.5506 6.77752 47.5662 6.7697 47.5779C6.76189 47.5936 6.74627 47.5975 6.74236 47.6131L6.73845 47.6287L6.71892 47.6522C6.7072 47.6678 6.71111 47.6834 6.7072 47.7029C6.69939 47.7225 6.68377 47.7342 6.67986 47.7537L6.66814 47.8787L6.63299 48.0154C6.62908 48.0272 6.63689 48.035 6.63689 48.0428C6.63689 48.0545 6.62517 48.0584 6.62517 48.0662V48.1834C6.62517 48.1951 6.63689 48.2029 6.63689 48.2108C6.63689 48.2225 6.62908 48.2303 6.63299 48.2381L6.66814 48.3592L6.67986 48.4959C6.68377 48.5194 6.69939 48.5311 6.7072 48.5506C6.71502 48.5662 6.71111 48.5858 6.71892 48.6014L6.73845 48.6248L6.74236 48.6404C6.74627 48.66 6.76189 48.6678 6.7697 48.6834C6.77752 48.6951 6.77361 48.7069 6.78142 48.7147L6.8908 48.8514L6.98455 48.9881C6.99237 48.9998 7.00799 48.9959 7.01971 49.0076C7.03143 49.0194 7.03533 49.035 7.05096 49.0428V49.0467C7.06268 49.0701 7.08221 49.0858 7.10174 49.1053C7.10565 49.1092 7.10565 49.117 7.11346 49.1209L7.26971 49.2342L7.43377 49.3592C7.43767 49.3631 7.44158 49.3592 7.44549 49.3631C7.44939 49.367 7.44939 49.3709 7.44939 49.3709L7.5158 49.41L7.55877 49.4373C7.56658 49.4451 7.5783 49.4412 7.58611 49.4451C7.59392 49.449 7.59392 49.4569 7.59783 49.4569L7.82049 49.535L7.98455 49.6365C8.00408 49.6483 8.02361 49.6483 8.04315 49.6522C8.05096 49.6561 8.05486 49.6639 8.06268 49.6639L8.12127 49.6717L8.15643 49.6912C8.17205 49.699 8.18377 49.699 8.1994 49.7029C8.20721 49.7069 8.20721 49.7147 8.21502 49.7147L8.4533 49.7694H8.46111L8.46502 49.7733L8.77752 49.8279L8.78924 49.8319L8.85564 49.8553C8.87127 49.8592 8.88689 49.8631 8.90252 49.8631C8.90642 49.8631 8.90642 49.867 8.90642 49.867L9.44549 49.8983H9.4572H9.53924H9.54705H9.62127H9.63299L10.172 49.867C10.176 49.867 10.176 49.8631 10.176 49.8631C10.1916 49.8631 10.2072 49.8592 10.2228 49.8553L10.2892 49.8319L10.301 49.8279L10.6135 49.7733L10.6174 49.7694H10.6252L10.7345 49.7459L10.7619 49.8631C10.7658 49.8826 10.7814 49.8904 10.7892 49.9061C10.7931 49.9178 10.7892 49.9295 10.797 49.9412L11.7267 51.1248C11.7346 51.1326 11.7463 51.1326 11.7502 51.1366C11.758 51.1444 11.758 51.1561 11.7697 51.1639L13.2033 52.16C13.2111 52.1678 13.2228 52.1639 13.2307 52.1678C13.2385 52.1717 13.2385 52.1795 13.2424 52.1795L13.5822 52.3162L13.5353 52.3397L11.4611 52.7811L9.25804 52.9061L7.05104 52.6991L5.04714 52.16L3.35574 51.3475L2.07844 50.328L1.33235 49.1835L1.12141 47.9608L1.48849 46.7538ZM7.23069 55.3124V53.5819L7.76585 54.4257L7.82835 54.8827L7.23069 55.3124ZM7.84397 55.3632V60.6835L6.58227 60.41L5.26977 59.3867L5.01196 58.1561L5.23071 56.7772L7.03151 55.953C7.03932 55.9491 7.03932 55.9374 7.04714 55.9335C7.05495 55.9257 7.06667 55.9296 7.07448 55.9218L7.1526 55.8554L7.84397 55.3632ZM4.96507 56.4648C4.95726 56.4687 4.95726 56.4765 4.94945 56.4804C4.92991 56.4921 4.9182 56.5117 4.90257 56.5312C4.88304 56.5507 4.86741 56.5703 4.8596 56.5976C4.8557 56.6054 4.84788 56.6093 4.84788 56.6171L4.6096 58.1366C4.6096 58.1444 4.61351 58.1483 4.61351 58.1523C4.61351 58.1601 4.6057 58.164 4.6057 58.1679V66.1054L3.3674 65.5194L2.0901 64.4842L1.3401 63.324L1.12526 62.1052L1.12916 49.5782L1.77369 50.5665C1.7776 50.5743 1.78932 50.5743 1.79713 50.5782C1.80494 50.59 1.80494 50.6017 1.81666 50.6134L3.13696 51.6681C3.14477 51.6759 3.15259 51.672 3.1604 51.6759C3.16821 51.6798 3.16821 51.6876 3.17602 51.6915L4.90652 52.5197C4.91433 52.5236 4.92215 52.5236 4.93387 52.5275C4.93777 52.5275 4.93777 52.5353 4.94168 52.5353L6.83228 53.0431V55.6056L4.96507 56.4648ZM11.7268 67.0348V75.4215L11.2268 75.4801L10.9026 75.4254L9.39475 75.191L6.58225 74.5699L5.26975 73.5465L5.00803 72.2887V66.4176L5.01194 59.691L6.37524 60.7535C6.39086 60.7652 6.41039 60.7652 6.42602 60.7731C6.43774 60.777 6.44164 60.7926 6.45336 60.7926L8.00026 61.1285L9.30886 61.4098H9.31277H9.31667L10.8362 61.6793H10.844L11.1916 61.734C11.2034 61.7379 11.2112 61.7379 11.2229 61.7379C11.2307 61.7379 11.2424 61.7379 11.2502 61.734L11.7268 61.6676L11.7229 67.0348H11.7268ZM15.8323 61.7067V61.7106C15.8206 61.7223 15.8206 61.7418 15.8127 61.7575C15.801 61.7809 15.7893 61.7965 15.7854 61.8239C15.7854 61.8356 15.7737 61.8395 15.7737 61.8512V65.4215L15.3401 65.7418L13.551 66.484L12.1252 66.7926V61.441C12.1252 61.4371 12.1213 61.4332 12.1213 61.4254C12.1213 61.4215 12.1252 61.4176 12.1252 61.4098C12.1213 61.3863 12.1017 61.3746 12.0939 61.3551C12.0822 61.3316 12.0744 61.3082 12.0549 61.2926C12.0353 61.277 12.0119 61.273 11.9885 61.2652C11.9689 61.2574 11.9494 61.2418 11.926 61.2418C11.9221 61.2418 11.9182 61.2457 11.9103 61.2496C11.9064 61.2496 11.9025 61.2457 11.8947 61.2457L11.2189 61.3395L10.9025 61.2887L9.38303 61.0191L8.24243 60.773V54.9722C8.24243 54.9683 8.23852 54.9644 8.23462 54.9566C8.23462 54.9527 8.23852 54.9488 8.23852 54.941L8.15259 54.3238C8.14868 54.3082 8.13696 54.3004 8.12915 54.2847C8.12524 54.2691 8.12915 54.2574 8.12134 54.2418L7.4104 53.1246L9.2385 53.2965H9.25803H9.26975L11.4924 53.1715H11.4964H11.5042C11.5159 53.1715 11.5237 53.1675 11.5315 53.1675L13.6409 52.7183C13.6448 52.7183 13.6448 52.7105 13.6487 52.7105C13.6604 52.7066 13.6722 52.7066 13.68 52.7027L14.0901 52.5152L15.0628 52.9293C15.0706 52.9332 15.0823 52.9332 15.0901 52.9371C15.094 52.9371 15.094 52.941 15.0979 52.9449L17.2073 53.3941C17.2152 53.398 17.2269 53.398 17.2347 53.398H17.2425H17.2464L17.9456 53.441V60.4293L16.7229 60.7926C16.7034 60.7965 16.6995 60.816 16.6839 60.8238C16.6682 60.8316 16.6487 60.8316 16.637 60.8433L15.8128 61.6988C15.8362 61.7066 15.8362 61.7066 15.8323 61.7066L15.8323 61.7067ZM17.6135 77.3627H17.6096C17.6096 77.3627 17.6096 77.3588 17.6057 77.3588L16.5901 76.683L16.176 75.9525V62.6045L16.2658 62.7608C16.2737 62.7725 16.2854 62.7686 16.2932 62.7764C16.3049 62.792 16.3088 62.8155 16.3244 62.8272L17.3752 63.542L19.2619 64.8545L19.2112 65.503L18.0315 65.9795C18.0158 65.9873 18.0158 65.9991 18.0041 66.0069C17.9807 66.0225 17.965 66.0342 17.9494 66.0576C17.9338 66.0811 17.926 66.0967 17.9221 66.1241C17.9182 66.1397 17.9065 66.1475 17.9065 66.1631V77.5811L17.6135 77.3627ZM13.6057 79.2025L13.7893 78.9134L14.1135 78.6517L14.594 78.4173L15.1486 78.2728L15.7815 78.2181L16.3986 78.2572L16.9533 78.3626L17.465 78.5853L17.8322 78.8509L18.0705 79.1361L18.1447 79.4173L18.0901 79.7259L17.9065 79.9994L17.5549 80.2767L17.1135 80.4954L16.5471 80.64L15.9338 80.6947L15.2932 80.6673L14.7307 80.5501L14.2307 80.3392L13.8596 80.0697L13.6252 79.7884L13.551 79.5072L13.6057 79.2025ZM18.3635 93.5425L18.301 93.9058L18.1017 94.2105L17.7228 94.5151L17.2111 94.7651L16.6017 94.937L15.9416 94.9917L15.258 94.9527L14.6291 94.8198L14.09 94.5972L13.6838 94.3159L13.4299 93.98L13.3361 93.648V80.347L13.3908 80.4134C13.3986 80.4212 13.4064 80.4173 13.4142 80.4251C13.422 80.4329 13.422 80.4446 13.4299 80.4485L13.8791 80.7727C13.8869 80.7806 13.8986 80.7766 13.9064 80.7806C13.9142 80.7845 13.9142 80.7923 13.922 80.7962L14.5002 81.0345C14.508 81.0384 14.5197 81.0384 14.5275 81.0423C14.5314 81.0423 14.5314 81.0462 14.5353 81.0462L15.1955 81.1868C15.2072 81.1907 15.215 81.1907 15.2228 81.1907H15.2306H15.2345L15.9377 81.2298H15.9494H15.9689L16.6564 81.1595L16.6603 81.1555C16.6681 81.1555 16.6759 81.1555 16.6838 81.1516L17.3283 80.9993C17.3322 80.9993 17.3361 80.9915 17.34 80.9915C17.3517 80.9876 17.3595 80.9876 17.3713 80.9837L17.922 80.7141C17.9299 80.7102 17.9299 80.7024 17.9338 80.6985C17.9416 80.6946 17.9494 80.6946 17.9572 80.6907L18.3634 80.3665L18.3595 93.5425H18.3635ZM19.2775 74.3785V78.9176L19.2189 79.6637L18.7658 79.8395V79.4137C18.7658 79.402 18.758 79.398 18.7541 79.3902C18.7541 79.3785 18.7619 79.3707 18.758 79.3629L18.6447 78.9566C18.6408 78.941 18.6252 78.9371 18.6213 78.9254C18.6135 78.9137 18.6213 78.898 18.6096 78.8863L18.3283 78.523C18.3244 78.5191 18.3166 78.5191 18.3127 78.5152V66.3002L19.2775 65.9135L19.2775 74.3785ZM51.6365 66.9097L49.5818 67.9253C49.574 67.9292 49.574 67.937 49.5701 67.9409C49.5662 67.9448 49.5584 67.9409 49.5545 67.9448L47.3045 69.5346C47.2967 69.5424 47.2967 69.5502 47.2889 69.5581C47.281 69.5659 47.2693 69.5659 47.2654 69.5737L45.6052 71.6128C45.6013 71.6206 45.6013 71.6284 45.5974 71.6323C45.5935 71.6401 45.5818 71.6401 45.5779 71.6479L44.5115 73.7534L43.4529 75.312L40.949 76.6167L37.0388 76.7417L33.5232 76.4175L28.1404 75.773L26.2966 75.3706L24.9372 74.7456C24.9333 74.7417 24.9294 74.7456 24.9255 74.7456C24.9216 74.7417 24.9216 74.7378 24.9176 74.7378L21.7107 73.6284C21.6911 73.6206 21.6755 73.6323 21.656 73.6323C21.6364 73.6323 21.6169 73.6167 21.5974 73.6245L19.6677 74.1206V64.7612C19.6677 64.7534 19.6599 64.7495 19.6599 64.7417C19.6559 64.7182 19.6442 64.7026 19.6364 64.6792C19.6286 64.6597 19.6286 64.6401 19.613 64.6245C19.6052 64.6167 19.6013 64.6167 19.5934 64.6089C19.5895 64.605 19.5895 64.5972 19.5817 64.5932L17.6012 63.2144L16.5856 62.5229L16.2184 61.8784L16.9059 61.1675L18.2184 60.7729H18.2223L18.3044 60.7456L20.9958 60.0464H20.9997L21.6403 59.8667L24.7848 60.9565L26.1442 61.5971C26.1559 61.6049 26.1676 61.601 26.1794 61.6049C26.1833 61.6049 26.1872 61.6127 26.1911 61.6127L28.0622 62.0073C28.0661 62.0073 28.0739 62.0073 28.0778 62.0112H28.0817L33.4801 62.6713H33.484L37.0113 62.9955H37.0308H37.0387L38.0778 62.9526L40.7731 62.8666H40.7809L40.9957 62.851H41.0074C41.0113 62.851 41.0113 62.8471 41.0152 62.8471C41.0387 62.8432 41.0621 62.8393 41.0856 62.8276L43.6715 61.476C43.691 61.4643 43.6988 61.4447 43.7105 61.4252C43.7183 61.4135 43.734 61.4174 43.7418 61.4057L44.8395 59.7729C44.8434 59.769 44.8395 59.7651 44.8434 59.7651C44.8473 59.7612 44.8512 59.7572 44.8551 59.7533L45.9137 57.6595L47.5387 55.6751L49.7535 54.1243L51.6207 53.2025L51.6324 66.9095L51.6365 66.9097ZM51.8006 52.6907L49.6209 52.8977L47.4061 52.7727L45.3319 52.3313L45.242 52.2922L46.4959 51.6907C46.5038 51.6868 46.5038 51.679 46.5116 51.6751C46.5194 51.6712 46.5311 51.6712 46.535 51.6673L47.8436 50.6125C47.8553 50.6047 47.8514 50.5891 47.8631 50.5813C47.871 50.5735 47.8827 50.5774 47.8866 50.5696L48.4022 49.7961L48.6795 49.8547C48.6913 49.8547 48.6991 49.8586 48.7108 49.8586H48.7147L49.4178 49.886H49.4256H49.4452L50.1483 49.8157C50.1522 49.8157 50.1522 49.8118 50.1522 49.8118C50.16 49.8118 50.1678 49.8118 50.1756 49.8079L50.8202 49.6555C50.8241 49.6555 50.828 49.6477 50.8319 49.6477C50.8436 49.6438 50.8514 49.6438 50.8631 49.6399L51.4139 49.3704C51.4217 49.3665 51.4217 49.3586 51.4256 49.3586C51.4334 49.3547 51.4413 49.3547 51.4491 49.3508L51.8709 49.0266C51.8866 49.0149 51.8866 48.9993 51.8944 48.9875C51.9022 48.9797 51.9139 48.9797 51.9178 48.9719L52.1561 48.5774C52.1639 48.5696 52.1561 48.5579 52.16 48.5501C52.1639 48.5383 52.1795 48.5305 52.1795 48.5149L52.2655 48.1086C52.2694 48.0891 52.2577 48.0774 52.2538 48.0579C52.2538 48.0383 52.2655 48.0266 52.2577 48.0071L52.1249 47.6008C52.1209 47.5891 52.1053 47.5813 52.1014 47.5735C52.0975 47.5618 52.1014 47.5501 52.0936 47.5422L51.8124 47.175C51.8045 47.1633 51.7928 47.1672 51.785 47.1594C51.7772 47.1516 51.7772 47.1399 51.7655 47.1321L51.3006 46.8235C51.2928 46.8196 51.2889 46.8235 51.2811 46.8196C51.2772 46.8157 51.2733 46.8079 51.2694 46.8079L50.6952 46.554C50.6874 46.55 50.6795 46.5579 50.6756 46.554C50.6678 46.55 50.6639 46.5422 50.6561 46.5422L49.9959 46.4016C49.9881 46.4016 49.9842 46.4055 49.9803 46.4055C49.9725 46.4055 49.9686 46.3977 49.9608 46.3977L49.2577 46.3704C49.2577 46.3704 49.2538 46.3704 49.2538 46.3743L49.2498 46.3704H49.2381L48.9295 46.386V43.3587L49.0623 43.3509L51.2498 43.4759L52.7108 43.7884V48.0579C52.7108 48.0696 52.7225 48.0735 52.7225 48.0852C52.7264 48.0969 52.7147 48.1048 52.7186 48.1126L53.0858 49.3899C53.0897 49.4055 53.1053 49.4133 53.1131 49.4289C53.117 49.4367 53.1131 49.4485 53.1209 49.4563L54.0506 50.6399C54.0584 50.6477 54.0701 50.6438 54.074 50.6516C54.0818 50.6594 54.0818 50.675 54.0936 50.6789L55.2459 51.4797L53.8436 52.1555L51.8006 52.6907ZM57.7654 62.0969L57.5349 63.3196L56.7888 64.4798L55.5193 65.5189L53.8318 66.3158L52.031 66.7806L52.0349 53.0466L53.9529 52.5349C53.9568 52.5349 53.9568 52.5271 53.9608 52.5271C53.9686 52.5232 53.9803 52.5232 53.9881 52.5193L55.6365 51.7302L57.3787 52.4568C57.3865 52.4607 57.3982 52.4607 57.406 52.4607C57.4099 52.4607 57.4099 52.4646 57.4138 52.4685L57.7615 52.5466L57.7654 62.0969ZM62.4607 52.6047L61.8044 52.6437L59.5974 52.5187L58.0115 52.1828L57.5233 52.0734L55.7303 51.3273L54.3358 50.3586L53.4529 49.2336L53.1053 48.0188V38.7219L53.4608 38.6828C53.4647 38.6828 53.4647 38.6789 53.4647 38.6789C53.4725 38.675 53.4803 38.675 53.4881 38.675L55.5428 38.1242C55.5467 38.1242 55.5467 38.1203 55.5506 38.1164C55.5584 38.1125 55.5662 38.1125 55.5701 38.1125L56.2225 37.8235L57.3827 38.3C57.3905 38.3039 57.4022 38.3039 57.41 38.3039C57.4139 38.3039 57.4139 38.3078 57.4178 38.3078L59.5272 38.757C59.539 38.761 59.5468 38.761 59.5546 38.761H59.5624H59.5663L61.789 38.886H61.8007H61.8203L64.043 38.675C64.0469 38.675 64.0469 38.6711 64.0469 38.6711C64.0586 38.6711 64.0664 38.6711 64.0742 38.6672L66.1289 38.1164C66.1328 38.1164 66.1328 38.1086 66.1367 38.1086C66.1445 38.1047 66.1562 38.1047 66.1602 38.1008L67.9024 37.2727C67.9102 37.2688 67.9102 37.261 67.918 37.2571C67.9258 37.2531 67.9375 37.2531 67.9414 37.2492L69.2344 36.2101C69.2461 36.2023 69.2461 36.1867 69.2539 36.175C69.2618 36.1672 69.2735 36.1711 69.2774 36.1633L69.9375 35.1555V47.6825L69.7227 48.913L69.668 48.9872C69.6641 48.995 69.668 48.9989 69.6641 49.0067C69.6602 49.0106 69.6524 49.0106 69.6524 49.0184V49.0262C69.6524 49.0302 69.6485 49.0302 69.6485 49.0302L69.5977 49.1395L68.961 50.0848L67.711 51.1043L66.2657 51.7918L66.2579 51.7957L66.0118 51.9129L63.9923 52.4247L62.4607 52.6047ZM79.5077 61.8469L79.3085 63.093L78.5468 64.2414L77.285 65.2609L75.5898 66.0734L73.5703 66.6124L71.3789 66.8195L69.164 66.6945L67.0899 66.2531L65.3008 65.5109L63.918 64.5265L63.0351 63.4015L62.6875 62.171V52.9835L64.0547 52.8351C64.0586 52.8351 64.0586 52.8312 64.0586 52.8312C64.0664 52.8312 64.0742 52.8312 64.082 52.8272L66.1367 52.3077C66.1406 52.3077 66.1445 52.2999 66.1484 52.2999C66.1602 52.296 66.168 52.296 66.1758 52.2921L66.3633 52.2022L66.957 52.4483C66.9648 52.4522 66.9766 52.4522 66.9844 52.4562C66.9883 52.4562 66.9883 52.4601 66.9922 52.4601L69.1016 52.9093C69.1133 52.9132 69.1211 52.9132 69.1328 52.9132H69.1367H69.1446L71.3829 53.0382H71.3946H71.4141L73.6368 52.8272L73.6407 52.8233C73.6485 52.8233 73.6602 52.8233 73.6681 52.8194L75.7228 52.2999C75.7267 52.2999 75.7306 52.2921 75.7345 52.2921C75.7462 52.2882 75.754 52.2882 75.7618 52.2843L77.4923 51.4562C77.5001 51.4522 77.5001 51.4444 77.5079 51.4405C77.5158 51.4366 77.5275 51.4366 77.5314 51.4327L78.84 50.378C78.8517 50.3702 78.8517 50.3546 78.8595 50.3468C78.8673 50.339 78.8791 50.3429 78.883 50.335L79.5275 49.3507L79.5077 61.8469Z" fill="black"/>
</svg>
