<svg width="100" height="100" viewBox="0 0 100 100" fill="none" xmlns="http://www.w3.org/2000/svg">
<path d="M3.0586 77.582L3.85938 81.0625C3.8711 81.1133 3.89063 81.164 3.92188 81.2109L6.25778 84.4882C6.26559 84.4999 6.28122 84.5039 6.28903 84.5156C6.30856 84.5351 6.32028 84.5585 6.34372 84.5742L10.0546 87.3711C10.0624 87.3789 10.0741 87.375 10.082 87.3789C10.1015 87.3906 10.1132 87.4062 10.1366 87.4179L14.9882 89.5663C15 89.5742 15.0117 89.5702 15.0234 89.5742C15.0351 89.5781 15.0468 89.5898 15.0586 89.5898L20.7266 90.9414C20.7422 90.9453 20.7578 90.9453 20.7773 90.9492C20.7812 90.9492 20.7891 90.9531 20.793 90.9531L26.8555 91.4023C26.8672 91.4023 26.875 91.4062 26.8828 91.4062C26.8906 91.4062 26.9023 91.4062 26.9102 91.4023L32.9727 90.9531C32.9766 90.9531 32.9844 90.9492 32.9883 90.9492C33.0039 90.9453 33.0195 90.9453 33.0391 90.9414L38.6914 89.5898C38.7031 89.5859 38.7148 89.5781 38.7265 89.5742C38.7382 89.5702 38.75 89.5702 38.7617 89.5663L43.6015 87.4179C43.621 87.4062 43.6366 87.3945 43.6562 87.3828C43.664 87.375 43.6718 87.3789 43.6796 87.375L47.4179 84.5781C47.4413 84.5585 47.4531 84.539 47.4726 84.5156C47.4843 84.5039 47.496 84.4999 47.5038 84.4882L48.3241 83.3398V84.6093C48.3241 84.6249 48.332 84.6367 48.332 84.6523C48.3359 84.6679 48.3281 84.6796 48.332 84.6953L49.121 88.1953C49.1327 88.246 49.1523 88.2968 49.1874 88.3398L51.5351 91.6015C51.5429 91.6132 51.5547 91.6171 51.5625 91.6249C51.582 91.6445 51.5937 91.6718 51.6172 91.6874L55.332 94.4882C55.3398 94.496 55.3515 94.4921 55.3554 94.496C55.3749 94.5078 55.3866 94.5234 55.4101 94.5312L60.2617 96.6953C60.2734 96.6992 60.2851 96.6992 60.2968 96.7031C60.3086 96.707 60.3203 96.7187 60.332 96.7226L65.9843 98.0742C65.9999 98.0781 66.0155 98.0781 66.0351 98.0821C66.039 98.0821 66.0468 98.086 66.0507 98.086L72.1249 98.5352C72.1366 98.5352 72.1444 98.5391 72.1522 98.5391C72.1601 98.5391 72.1718 98.5391 72.1796 98.5352L78.2421 98.086C78.246 98.086 78.2538 98.0821 78.2577 98.0821C78.2733 98.0781 78.289 98.0781 78.3085 98.0742L83.9491 96.7226C83.9647 96.7187 83.9725 96.7109 83.9843 96.7031C83.996 96.6992 84.0077 96.6992 84.0194 96.6953L88.871 94.5312C88.8905 94.5234 88.9062 94.5078 88.9218 94.496C88.9296 94.4921 88.9413 94.4921 88.9452 94.4882L92.6718 91.6874C92.6953 91.6679 92.707 91.6484 92.7265 91.6249C92.7382 91.6132 92.7499 91.6093 92.7578 91.5976L95.0937 88.3359C95.1249 88.289 95.1483 88.2382 95.1601 88.1874L95.9608 84.6913C95.9648 84.6757 95.9608 84.664 95.9608 84.6484C95.9648 84.6328 95.9726 84.6171 95.9726 84.6015L95.9608 56.1175C95.9608 56.1058 95.953 56.0941 95.953 56.0823C95.9491 56.0667 95.953 56.055 95.9491 56.0394V56.0277L95.1483 52.516C95.1405 52.4886 95.1249 52.4613 95.1132 52.4339C95.1015 52.4105 95.0976 52.387 95.0819 52.3675L92.746 49.1058C92.7343 49.0902 92.7148 49.0785 92.6992 49.0628C92.6835 49.0472 92.6757 49.0316 92.6601 49.016L88.9335 46.2191C88.9218 46.2113 88.9062 46.2074 88.8944 46.1995C88.8788 46.1917 88.871 46.18 88.8593 46.1722L84.0077 44.0199C83.996 44.016 83.9842 44.016 83.9686 44.0121C83.9569 44.0082 83.9452 43.9965 83.9335 43.9965L83.6132 43.9261V29.9771C83.6132 29.9654 83.6053 29.9537 83.6053 29.942C83.6014 29.9264 83.6053 29.9146 83.6014 29.899V29.8912L82.8163 26.3873C82.8046 26.3326 82.7811 26.2818 82.7499 26.2428L80.4179 22.9811C80.4062 22.9616 80.3866 22.9537 80.371 22.9381C80.3554 22.9225 80.3476 22.9069 80.3319 22.8912L77.4413 20.735V16.9147C77.4413 16.903 77.4335 16.8913 77.4335 16.8796C77.4296 16.864 77.4335 16.8522 77.4296 16.8366V16.8288L76.6406 13.3249C76.6288 13.2702 76.6054 13.2194 76.5742 13.1765L74.2421 9.91866C74.2304 9.90304 74.2148 9.89132 74.1992 9.8796C74.1836 9.86397 74.1757 9.84835 74.1601 9.83272L70.4335 7.02022C70.4218 7.0085 70.4062 7.0085 70.3905 7.00069C70.3749 6.99288 70.3671 6.98116 70.3515 6.97335L65.4999 4.83665C65.4882 4.83274 65.4764 4.83274 65.4647 4.82883C65.453 4.82493 65.4452 4.81712 65.4335 4.81321L59.7812 3.46161C59.7695 3.4577 59.7617 3.46161 59.7499 3.46161C59.7382 3.4577 59.7304 3.4538 59.7187 3.4538L53.6406 2.98505C53.6289 2.98505 53.621 2.98895 53.6093 2.98895C53.5976 2.98895 53.5898 2.98505 53.5781 2.98505L47.5156 3.44989C47.5039 3.44989 47.496 3.4577 47.4843 3.4577C47.4726 3.46161 47.4648 3.4577 47.4531 3.4577L41.8125 4.8093C41.8008 4.8132 41.7929 4.82102 41.7812 4.82492C41.7695 4.82883 41.7578 4.82883 41.7461 4.83274L36.8984 6.96944C36.8827 6.97725 36.8749 6.98897 36.8632 6.99678C36.8476 7.00459 36.832 7.0085 36.8202 7.01631L33.0936 9.82881C33.078 9.84053 33.0663 9.86006 33.0546 9.87569C33.039 9.89131 33.0233 9.89912 33.0116 9.91475L30.6757 13.1764C30.6445 13.2233 30.621 13.2702 30.6093 13.321L29.8085 16.821V16.8288C29.8046 16.8444 29.8046 16.8561 29.8046 16.8718C29.8007 16.8835 29.7968 16.8952 29.7968 16.9069L29.7929 35.2699L26.9023 35.0629C26.8906 35.0629 26.8789 35.0668 26.8671 35.0668C26.8593 35.0668 26.8515 35.0629 26.8437 35.0629L20.7812 35.5121C20.7695 35.5121 20.7617 35.5199 20.75 35.5199C20.7382 35.5238 20.7304 35.5199 20.7187 35.5199L15.0507 36.8832C15.039 36.8871 15.0312 36.8949 15.0195 36.8988C15.0077 36.9027 14.996 36.9027 14.9843 36.9067L10.1327 39.0434C10.1171 39.0512 10.1093 39.0629 10.0975 39.0707C10.0819 39.0785 10.0663 39.0824 10.0546 39.0902L6.34368 41.891C6.32415 41.9027 6.31634 41.9223 6.30462 41.9379C6.28899 41.9535 6.27337 41.9613 6.26165 41.977L3.92575 45.2387C3.92184 45.2426 3.92184 45.2465 3.91794 45.2504C3.89059 45.2934 3.86716 45.3402 3.85544 45.3871L3.05466 48.8988V48.9066C3.05075 48.9222 3.05075 48.934 3.05075 48.9496C3.05075 48.9613 3.04294 48.973 3.04294 48.9847V77.4887C3.04294 77.5044 3.05075 77.52 3.05466 77.5356C3.06247 77.5552 3.05856 77.5669 3.05856 77.5825L3.0586 77.582ZM95.1566 84.5664L94.3832 87.9414L92.1293 91.0898L88.4887 93.8242L83.7114 95.957L78.1411 97.2929L72.145 97.7382L66.1294 97.2929L60.5435 95.957L55.7701 93.8242L52.1373 91.0859L49.8756 87.9414L49.1138 84.5586V82.0859L49.1177 59.6989C49.1295 59.7497 49.149 59.7965 49.1802 59.8395L51.5279 63.1012C51.5358 63.1129 51.5475 63.1168 51.5592 63.1246C51.5787 63.1442 51.5904 63.1676 51.6139 63.1871L55.3248 65.9996C55.3326 66.0035 55.3443 66.0035 55.3482 66.0075C55.3678 66.0192 55.3834 66.0348 55.4029 66.0465L60.2545 68.1832C60.2662 68.1871 60.2779 68.1871 60.2897 68.191C60.3014 68.1949 60.3092 68.2067 60.3248 68.2067L65.9771 69.5583C65.9927 69.5622 66.0084 69.5622 66.024 69.5661C66.0318 69.5661 66.0357 69.57 66.0396 69.57L72.1138 70.0348C72.1255 70.0348 72.1334 70.0387 72.1451 70.0387C72.1529 70.0387 72.1646 70.0387 72.1763 70.0348L78.2388 69.57C78.2466 69.57 78.2505 69.5661 78.2544 69.5661C78.2701 69.5622 78.2857 69.5622 78.3013 69.5583L83.9419 68.2067C83.9536 68.2028 83.9615 68.1949 83.9771 68.191C83.9888 68.1871 84.0005 68.1871 84.0122 68.1832L88.8638 66.0465C88.8834 66.0348 88.899 66.0231 88.9185 66.0075C88.9263 66.0035 88.9381 66.0035 88.9459 65.9996L92.6725 63.1871C92.6959 63.1715 92.7076 63.1481 92.7271 63.1285C92.7389 63.1168 92.7506 63.1129 92.7584 63.1012L95.0943 59.8356C95.1255 59.7926 95.149 59.7419 95.1568 59.6911V59.6872L95.1685 59.6403L95.1607 84.5663L95.1566 84.5664ZM77.4376 21.7304L79.8009 23.4921L82.0509 26.6366L82.8009 29.9725L82.0509 33.3084L79.8009 36.4529L77.4376 38.2146V21.7304ZM77.4376 39.2184L80.3282 37.0622C80.3516 37.0466 80.3634 37.0231 80.3829 37.0036C80.3946 36.9919 80.4063 36.988 80.4141 36.9762L82.75 33.7145C82.7813 33.6716 82.8008 33.6247 82.8125 33.5778V43.7458L78.3008 42.656C78.2891 42.6521 78.2774 42.656 78.2696 42.656C78.2579 42.656 78.2501 42.6482 78.2383 42.6482L77.4415 42.5896L77.4376 39.2184ZM76.6407 49.0075L77.4298 45.5075C77.4337 45.4919 77.4298 45.4801 77.4298 45.4645C77.4337 45.4489 77.4376 45.4372 77.4376 45.4215V43.3903L78.1407 43.4411L83.1134 44.6442H83.1173H83.1212L83.715 44.777L88.4884 46.8942L92.129 49.6286L94.3829 52.777L95.1485 56.1247L94.3829 59.445L92.129 62.5934L88.4884 65.3434L83.7111 67.4489L78.1408 68.7848L72.1447 69.2458L66.133 68.7848L60.5432 67.4489L55.7659 65.3434L52.137 62.5973L49.8714 59.4489L49.7854 59.07L53.5745 59.3513C53.5863 59.3513 53.5941 59.3552 53.6058 59.3552C53.6136 59.3552 53.6253 59.3552 53.637 59.3513L59.7112 58.8864C59.7191 58.8864 59.723 58.8825 59.7269 58.8825C59.7425 58.8786 59.7581 58.8786 59.7737 58.8747L63.6018 57.9528L64.2464 58.8591C64.2542 58.8708 64.2698 58.8786 64.2776 58.8864C64.2971 58.906 64.3089 58.9294 64.3284 58.945L65.7229 59.9997C65.7307 60.0075 65.7385 60.0036 65.7463 60.0075C65.7659 60.0193 65.7776 60.0349 65.801 60.0466L67.5862 60.8474C67.5979 60.8552 67.6097 60.8513 67.6214 60.8552C67.637 60.8591 67.6448 60.8708 67.6604 60.8747L69.7698 61.3669C69.7855 61.3708 69.7972 61.3708 69.8128 61.3708C69.8206 61.3708 69.8245 61.3747 69.8284 61.3747L72.1057 61.5583C72.1175 61.5583 72.1253 61.5622 72.137 61.5622C72.1487 61.5622 72.1565 61.5622 72.1682 61.5583L74.4182 61.3747C74.426 61.3747 74.43 61.3708 74.4339 61.3708C74.4495 61.3669 74.4612 61.3708 74.4768 61.3669L76.5862 60.8747C76.6019 60.8708 76.6097 60.863 76.6214 60.8552C76.6331 60.8513 76.6448 60.8513 76.6565 60.8474L78.4573 60.0466C78.4769 60.0349 78.4925 60.0232 78.512 60.0075C78.5198 60.0036 78.5276 60.0036 78.5355 59.9997L79.9261 58.945C79.9495 58.9294 79.9612 58.906 79.9808 58.8864C79.9925 58.8747 80.0042 58.8708 80.012 58.8591L80.8714 57.6482C80.8792 57.6365 80.8831 57.6247 80.887 57.613C80.9026 57.5896 80.9104 57.5622 80.9183 57.5388C80.9183 57.5349 80.9222 57.531 80.9222 57.5271C80.9261 57.5232 80.93 57.5193 80.93 57.5154L81.1136 56.7966V56.7888C81.1136 56.7849 81.1175 56.7849 81.1175 56.7849L81.2464 56.2068V56.199C81.2503 56.1716 81.2503 56.1443 81.2503 56.1208C81.2503 56.0935 81.2542 56.0662 81.2464 56.0427V56.0349L80.9378 54.7146C80.9339 54.7029 80.9261 54.6951 80.9222 54.6873C80.9144 54.6599 80.9026 54.6365 80.8909 54.613C80.8831 54.6013 80.8831 54.5896 80.8753 54.5779L80.8714 54.574V54.5701L80.0159 53.367C80.0081 53.3553 80.0003 53.3514 79.9925 53.3474C79.9769 53.3279 79.9651 53.3162 79.9456 53.3006C79.9378 53.2928 79.9339 53.2849 79.9261 53.281L78.5355 52.2419C78.5238 52.2302 78.5081 52.2302 78.4964 52.2224C78.4847 52.2146 78.473 52.2029 78.4613 52.199L76.6605 51.3982C76.6487 51.3943 76.637 51.3943 76.6253 51.3904C76.6136 51.3865 76.6058 51.3787 76.5901 51.3748L75.2151 51.0505L76.5667 49.1716C76.6058 49.1052 76.6292 49.0584 76.641 49.0076L76.6407 49.0075ZM64.5707 57.7223L65.4301 57.5192C65.4418 57.5153 65.4535 57.5074 65.4653 57.5035C65.477 57.4996 65.4887 57.4996 65.5004 57.4957L70.352 55.3473C70.3715 55.3356 70.3872 55.3239 70.4067 55.3083C70.4145 55.3044 70.4262 55.3044 70.4301 55.3004L74.1567 52.4996C74.1802 52.484 74.1919 52.4606 74.2114 52.4411C74.2231 52.4293 74.2349 52.4254 74.2427 52.4137L74.6802 51.8043L76.3052 52.1833C76.3325 52.2028 76.3638 52.2145 76.3989 52.2223L78.0161 52.9489L79.2856 53.9137L80.0747 54.9957L80.1567 55.359V56.8668L80.0747 57.2262L79.2856 58.3082L78.02 59.273L76.3091 60.0269L74.2935 60.5035L72.149 60.6675L69.9732 60.5035L67.9732 60.0269L66.2623 59.273L64.9889 58.3121L64.5707 57.7223ZM31.3677 13.5773L33.6216 10.4328L37.2622 7.68278L42.0395 5.57728L47.6098 4.24138L53.6059 3.78044L59.6176 4.24138L65.2074 5.57728L69.9808 7.68278L73.6214 10.4328L75.8714 13.5773L76.6214 16.9132L75.8714 20.2491L73.6214 23.3936L69.9808 26.128L65.2035 28.2335L59.6176 29.5812L53.602 30.0421L47.6098 29.5773L42.0395 28.2296L37.2622 26.1241L33.6216 23.3897L31.3677 20.2413L30.6021 16.9054L31.3677 13.5773ZM30.5982 44.4443V20.4523L30.6099 20.4992C30.6216 20.5499 30.6412 20.6007 30.6763 20.6437L33.0122 23.9054C33.02 23.9171 33.0356 23.921 33.0435 23.9327C33.063 23.9523 33.0747 23.9757 33.0982 23.9913L36.8248 26.7921C36.8326 26.7999 36.8443 26.796 36.8482 26.7999C36.8677 26.8117 36.8794 26.8273 36.9029 26.839L41.7545 28.9757C41.7662 28.9796 41.7779 28.9796 41.7896 28.9835C41.8014 28.9874 41.8092 28.9952 41.8209 28.9991L47.4615 30.3624C47.4771 30.3663 47.4927 30.3663 47.5084 30.3703C47.5162 30.3703 47.5201 30.3742 47.524 30.3742L53.5865 30.839H53.6177H53.649L59.7232 30.3742C59.731 30.3742 59.7349 30.3703 59.7388 30.3703C59.7544 30.3663 59.7701 30.3663 59.7857 30.3624L65.438 28.9991C65.4497 28.9952 65.4575 28.9874 65.4692 28.9835C65.4809 28.9796 65.4927 28.9796 65.5044 28.9757L70.356 26.839C70.3755 26.8312 70.3911 26.8117 70.4107 26.7999C70.4185 26.796 70.4302 26.796 70.4341 26.7921L74.1607 23.9913C74.1842 23.9757 74.1959 23.9523 74.2154 23.9327C74.2271 23.921 74.2388 23.9171 74.2467 23.9054L76.5826 20.6437C76.6138 20.6007 76.6333 20.5538 76.6451 20.5031V45.3701L75.8833 48.749L74.2349 51.0381C74.2232 51.0576 74.2154 51.0771 74.2076 51.0967C74.2037 51.1045 74.1959 51.1084 74.1881 51.1123L73.6334 51.8896L69.9928 54.624L65.2155 56.7412L63.8249 57.0693H63.821L63.696 57.0967C63.6921 57.0967 63.6921 57.1006 63.6881 57.1006H63.6842L59.6256 58.0772L53.61 58.5381L49.3092 58.2178L48.7546 58.1631H48.7506C48.7467 58.1631 48.7467 58.1592 48.7467 58.1592L47.61 58.0772L44.5905 57.3545L42.0397 56.7451L37.2624 54.6279L33.6686 51.9287C33.6647 51.9248 33.6608 51.9248 33.6569 51.9209C33.653 51.917 33.653 51.9131 33.6491 51.9131L33.6218 51.8936L31.3679 48.7452L30.5944 45.3702V44.4444L30.5982 44.4443ZM29.8052 45.4638C29.8091 45.4794 29.8013 45.4911 29.8052 45.5067L30.606 49.0028C30.6177 49.0536 30.6372 49.1044 30.6724 49.1474L32.7935 52.1122L32.7583 52.1356L31.0356 52.8895L29.0239 53.3661L26.8755 53.5301L24.6997 53.3661L22.6997 52.8895L20.9888 52.1356L19.7115 51.1747L18.9381 50.0966L18.8365 49.6435V48.3115L18.9381 47.8544L19.5944 46.9365C19.6334 46.8974 19.6686 46.8544 19.692 46.7997L19.7115 46.7724L20.9576 45.831C20.9655 45.8232 20.9772 45.8193 20.985 45.8115H20.9889L22.6608 45.0771C22.6686 45.0732 22.6803 45.0693 22.6881 45.0654L22.7038 45.0575L24.7038 44.5693L26.8757 44.4169L29.0202 44.5693L29.7936 44.7568V45.413C29.7975 45.4325 29.8053 45.4482 29.8053 45.4638L29.8052 45.4638ZM4.62122 45.6396L6.87512 42.4951L10.504 39.7607L15.2813 37.6552L20.879 36.3075L26.879 35.8622L29.797 36.0731V43.8583L29.2228 43.7216C29.2111 43.7177 29.2033 43.7216 29.1915 43.7216C29.1798 43.7177 29.172 43.7138 29.1603 43.7138L26.9103 43.5458C26.8986 43.5458 26.8908 43.5497 26.879 43.5497C26.8673 43.5497 26.8595 43.5458 26.8517 43.5458L24.5861 43.7138C24.5744 43.7138 24.5666 43.7216 24.5549 43.7216C24.5431 43.7255 24.5314 43.7216 24.5197 43.7216L22.422 44.2294C22.4103 44.2333 22.4025 44.2411 22.3907 44.245C22.379 44.2489 22.3673 44.2489 22.3556 44.2528L20.5431 45.0536C20.5275 45.0614 20.5197 45.0731 20.5079 45.0809C20.4923 45.0888 20.4767 45.0927 20.465 45.1005L19.0861 46.1396C19.0783 46.1474 19.0743 46.1552 19.0665 46.1591C19.0509 46.1708 19.0392 46.1864 19.0236 46.2021C19.0158 46.2099 19.0079 46.2138 19.0001 46.2216L18.1173 47.4443C18.1056 47.4599 18.1017 47.4756 18.0939 47.4912C18.0822 47.5146 18.0704 47.5341 18.0626 47.5576C18.0587 47.5693 18.0509 47.5771 18.047 47.5927L17.754 48.8974V48.9092C17.7501 48.9326 17.7501 48.9599 17.7501 48.9873C17.7501 49.0146 17.7462 49.042 17.754 49.0693V49.081L17.8947 49.6592L18.047 50.3623C18.0509 50.374 18.0587 50.3857 18.0626 50.3974C18.0704 50.4248 18.0822 50.4482 18.0978 50.4677C18.1056 50.4834 18.1056 50.4951 18.1173 50.5107L19.004 51.7216C19.0118 51.7333 19.0275 51.7372 19.0353 51.749C19.0509 51.7685 19.0626 51.788 19.0822 51.8036L20.4611 52.8583C20.4689 52.8662 20.4806 52.8623 20.4884 52.8662C20.5079 52.8779 20.5196 52.8935 20.5431 52.9052L22.3556 53.706C22.3673 53.7138 22.379 53.7099 22.3907 53.7138C22.4025 53.7177 22.4103 53.7294 22.4259 53.7294L24.5236 54.2216C24.5392 54.2255 24.5548 54.2255 24.5705 54.2255C24.5744 54.2255 24.5822 54.2294 24.5861 54.2294L26.8517 54.413C26.8634 54.413 26.8712 54.4169 26.8829 54.4169C26.8947 54.4169 26.9025 54.4169 26.9142 54.413L29.1642 54.2294C29.1681 54.2294 29.172 54.2255 29.1759 54.2255C29.1915 54.2216 29.2072 54.2216 29.2228 54.2216L31.3322 53.7294C31.3478 53.7255 31.3556 53.7177 31.3673 53.7138C31.3791 53.7099 31.3908 53.7099 31.3986 53.706L33.2111 52.9052C33.2345 52.8935 33.2502 52.8779 33.2697 52.8662C33.2775 52.8583 33.2892 52.8623 33.297 52.8583L33.4338 52.7529L36.8166 55.2959C36.8244 55.3037 36.8361 55.2998 36.84 55.3037C36.8595 55.3154 36.8712 55.331 36.8947 55.3428L41.7463 57.4911C41.758 57.499 41.7697 57.4951 41.7814 57.499C41.7932 57.5029 41.8049 57.5146 41.8166 57.5146L43.5744 57.9365L43.2228 58.2021L38.4611 60.3076L32.8713 61.6435L26.8752 62.1044L20.8752 61.6435L15.2736 60.3076L10.5002 58.2021L6.87523 55.456L4.62133 52.3076L3.85961 48.9873L4.62122 45.6396ZM3.85169 52.5185L3.86341 52.5614C3.87513 52.6122 3.89466 52.663 3.92981 52.706L6.26571 55.9677C6.27353 55.9794 6.28915 55.9872 6.29696 55.995C6.3165 56.0145 6.32821 56.038 6.34775 56.0536L10.0586 58.8661C10.0665 58.8739 10.0782 58.87 10.0821 58.8739C10.1016 58.8856 10.1172 58.9013 10.1368 58.913L14.9884 61.0497C15.0001 61.0536 15.0118 61.0536 15.0235 61.0575C15.0352 61.0614 15.0431 61.0692 15.0587 61.0731L20.7267 62.4247C20.7423 62.4286 20.7579 62.4286 20.7736 62.4325C20.7775 62.4325 20.7814 62.4364 20.7892 62.4364L26.8517 62.9013H26.8829H26.9142L32.9767 62.4364C32.9845 62.4364 32.9884 62.4325 32.9923 62.4325C33.0079 62.4286 33.0236 62.4286 33.0392 62.4247L38.6915 61.0731C38.7032 61.0692 38.7149 61.0614 38.7266 61.0575C38.7384 61.0536 38.7501 61.0536 38.7618 61.0497L43.6016 58.9091C43.6211 58.9013 43.6368 58.8856 43.6524 58.8739C43.6602 58.87 43.6719 58.87 43.6797 58.8661L44.5977 58.1786L47.4649 58.8661C47.4805 58.87 47.4961 58.87 47.5157 58.8739C47.5196 58.8739 47.5274 58.8778 47.5313 58.8778L48.3282 58.9364V81.9634L46.8907 83.9751L43.2384 86.7095L38.4728 88.8267L32.8869 90.1626L26.8908 90.6079L20.8908 90.1626L15.2892 88.8267L10.5158 86.7095L6.88688 83.9751L4.63298 80.811L3.85173 77.4477L3.85169 52.5185Z" fill="white"/>
<path d="M44.5 16.996L44.6289 17.5702L44.6328 17.5741V17.5819L44.8164 18.3007C44.8203 18.3085 44.8242 18.3085 44.8281 18.3163V18.3202C44.8359 18.3475 44.8477 18.3749 44.8633 18.3983C44.8711 18.41 44.8711 18.4217 44.8789 18.4335L45.7383 19.6562C45.7461 19.6679 45.7578 19.6718 45.7695 19.6835C45.7891 19.703 45.8008 19.7304 45.8281 19.746L47.2187 20.7851C47.2265 20.789 47.2344 20.789 47.2422 20.7929C47.2617 20.8046 47.2734 20.8203 47.293 20.8281L49.0938 21.6289C49.1055 21.6328 49.1172 21.6328 49.125 21.6367C49.1367 21.6406 49.1484 21.6523 49.1602 21.6523L51.2696 22.1601C51.2852 22.164 51.3008 22.164 51.3203 22.164C51.3242 22.164 51.3321 22.1679 51.336 22.1679L53.586 22.3359H53.6172H53.6446L55.9219 22.1679C55.9258 22.1679 55.9336 22.164 55.9375 22.164C55.9531 22.1601 55.9687 22.1601 55.9883 22.1562L58.0977 21.6484C58.1133 21.6445 58.1211 21.6367 58.1328 21.6328C58.1445 21.6289 58.1563 21.6289 58.1641 21.625L59.9493 20.8242C59.9688 20.8164 59.9805 20.8007 60.0001 20.789C60.0079 20.7851 60.0196 20.7851 60.0235 20.7812L61.418 19.7421C61.4414 19.7265 61.4531 19.703 61.4727 19.6835C61.4844 19.6718 61.4961 19.6679 61.5078 19.6562L62.3789 18.4335C62.3867 18.4217 62.3906 18.4061 62.3985 18.3944C62.4102 18.371 62.4219 18.3475 62.4297 18.3202C62.4336 18.3124 62.4375 18.3046 62.4414 18.2967C62.4414 18.2928 62.4453 18.2928 62.4453 18.2928L62.6133 17.5741L62.7539 17.0038V16.9882C62.7578 16.9608 62.7578 16.9335 62.7578 16.9061C62.7578 16.8788 62.7617 16.8553 62.7539 16.828V16.8124L62.4453 15.5038C62.4414 15.4921 62.4336 15.4842 62.4297 15.4725C62.4219 15.4452 62.4102 15.4217 62.3945 15.3983C62.3867 15.3866 62.3867 15.3749 62.3789 15.3631V15.3592L61.5 14.16C61.4922 14.1522 61.4844 14.1483 61.4805 14.1405C61.4649 14.1249 61.4531 14.1093 61.4375 14.0975C61.4297 14.0897 61.4258 14.0819 61.418 14.078L60.0235 13.0233C60.0118 13.0155 59.9961 13.0116 59.9844 13.0038C59.9688 12.996 59.961 12.9842 59.9454 12.9764L58.1602 12.1757C58.1484 12.1718 58.1367 12.1718 58.1211 12.1678C58.1094 12.1639 58.0977 12.1561 58.0859 12.1522L55.9765 11.66C55.9648 11.6561 55.957 11.66 55.9492 11.66C55.9375 11.66 55.9297 11.6522 55.9219 11.6522L53.6446 11.4686C53.6328 11.4686 53.625 11.4725 53.6133 11.4725C53.6016 11.4725 53.5899 11.4686 53.5781 11.4686L51.3281 11.6522C51.3164 11.6522 51.3086 11.66 51.3008 11.66C51.2891 11.6639 51.2813 11.66 51.2696 11.66L49.1602 12.1522C49.1484 12.1561 49.1367 12.1639 49.125 12.1678C49.1133 12.1718 49.1016 12.1718 49.0859 12.1757L47.2851 12.9764C47.2695 12.9842 47.2617 12.996 47.2461 13.0038C47.2344 13.0116 47.2187 13.0155 47.207 13.0233L45.8164 14.078C45.8086 14.0819 45.8047 14.0936 45.7969 14.0975C45.7812 14.1132 45.7656 14.1249 45.7539 14.1444C45.7461 14.1522 45.7383 14.1561 45.7305 14.1679L44.8711 15.3788C44.8633 15.3905 44.8594 15.4022 44.8555 15.4139C44.8437 15.4374 44.832 15.4608 44.8242 15.4842C44.8203 15.4959 44.8125 15.5038 44.8086 15.5155L44.5 16.8241V16.8358C44.4922 16.8592 44.4961 16.8866 44.4961 16.91C44.4961 16.9374 44.4922 16.9686 44.5 16.996L44.5 16.996ZM45.6016 16.1639L45.6836 15.8007L46.4727 14.7069L47.7539 13.742L49.4492 12.9881L51.4648 12.5115L53.6093 12.3475L55.7851 12.5115L57.7851 12.9881L59.496 13.742C59.5077 13.7537 59.5194 13.7615 59.5312 13.7694L60.7695 14.7029L61.5585 15.7967L61.6444 16.1835V17.6366L61.5585 18.0194L60.7695 19.0975L59.4922 20.0623L57.7774 20.8318L55.7812 21.3084L53.6055 21.4607L51.4571 21.3084L49.4454 20.8318L47.7501 20.0662L46.4728 19.1014L45.6837 18.0194L45.6017 17.66L45.6016 16.1639Z" fill="white"/>
</svg>
